# Blender 3.6.1
# www.blender.org
mtllib 10_ssueg.mtl
o node_1
v -0.500000 -2.500000 -0.500000
v -0.500000 -2.500000 -1.500000
v 0.500000 -2.500000 -1.500000
v 0.500000 -2.500000 -0.500000
v 0.500000 -1.500000 -0.500000
v 0.500000 -1.500000 -1.500000
v -0.500000 -1.500000 -1.500000
v -0.500000 -1.500000 -0.500000
v -0.500000 -1.500000 -1.500000
v 0.500000 -1.500000 -1.500000
v 0.500000 -2.500000 -1.500000
v -0.500000 -2.500000 -1.500000
v -0.500000 -1.500000 -0.500000
v -0.500000 -1.500000 -1.500000
v -0.500000 -2.500000 -1.500000
v -0.500000 -2.500000 -0.500000
v 0.500000 -2.500000 -0.500000
v 0.500000 -2.500000 -1.500000
v 0.500000 -1.500000 -1.500000
v 0.500000 -1.500000 -0.500000
v -0.500000 0.500000 -0.500000
v -0.500000 0.500000 -1.500000
v 0.500000 0.500000 -1.500000
v 0.500000 0.500000 -0.500000
v 0.500000 1.500000 -0.500000
v 0.500000 1.500000 -1.500000
v -0.500000 1.500000 -1.500000
v -0.500000 1.500000 -0.500000
v -0.500000 1.500000 -1.500000
v 0.500000 1.500000 -1.500000
v 0.500000 0.500000 -1.500000
v -0.500000 0.500000 -1.500000
v -0.500000 1.500000 -0.500000
v -0.500000 1.500000 -1.500000
v -0.500000 0.500000 -1.500000
v -0.500000 0.500000 -0.500000
v 0.500000 0.500000 -0.500000
v 0.500000 0.500000 -1.500000
v 0.500000 1.500000 -1.500000
v 0.500000 1.500000 -0.500000
v -0.500000 -2.500000 0.500000
v -0.500000 -2.500000 -0.500000
v 0.500000 -2.500000 -0.500000
v 0.500000 -2.500000 0.500000
v -0.500000 -1.500000 0.500000
v -0.500000 -2.500000 0.500000
v 0.500000 -2.500000 0.500000
v 0.500000 -1.500000 0.500000
v -0.500000 -1.500000 0.500000
v -0.500000 -1.500000 -0.500000
v -0.500000 -2.500000 -0.500000
v -0.500000 -2.500000 0.500000
v 0.500000 -2.500000 0.500000
v 0.500000 -2.500000 -0.500000
v 0.500000 -1.500000 -0.500000
v 0.500000 -1.500000 0.500000
v -0.500000 -0.500000 -0.500000
v 0.500000 -0.500000 -0.500000
v 0.500000 -1.500000 -0.500000
v -0.500000 -1.500000 -0.500000
v -0.500000 -0.500000 0.500000
v -0.500000 -1.500000 0.500000
v 0.500000 -1.500000 0.500000
v 0.500000 -0.500000 0.500000
v -0.500000 -0.500000 0.500000
v -0.500000 -0.500000 -0.500000
v -0.500000 -1.500000 -0.500000
v -0.500000 -1.500000 0.500000
v 0.500000 -1.500000 0.500000
v 0.500000 -1.500000 -0.500000
v 0.500000 -0.500000 -0.500000
v 0.500000 -0.500000 0.500000
v -0.500000 0.500000 -0.500000
v 0.500000 0.500000 -0.500000
v 0.500000 -0.500000 -0.500000
v -0.500000 -0.500000 -0.500000
v -0.500000 0.500000 0.500000
v -0.500000 -0.500000 0.500000
v 0.500000 -0.500000 0.500000
v 0.500000 0.500000 0.500000
v -0.500000 0.500000 0.500000
v -0.500000 0.500000 -0.500000
v -0.500000 -0.500000 -0.500000
v -0.500000 -0.500000 0.500000
v 0.500000 -0.500000 0.500000
v 0.500000 -0.500000 -0.500000
v 0.500000 0.500000 -0.500000
v 0.500000 0.500000 0.500000
v 0.500000 1.500000 0.500000
v 0.500000 1.500000 -0.500000
v -0.500000 1.500000 -0.500000
v -0.500000 1.500000 0.500000
v -0.500000 1.500000 0.500000
v -0.500000 0.500000 0.500000
v 0.500000 0.500000 0.500000
v 0.500000 1.500000 0.500000
v -0.500000 1.500000 0.500000
v -0.500000 1.500000 -0.500000
v -0.500000 0.500000 -0.500000
v -0.500000 0.500000 0.500000
v 0.500000 0.500000 0.500000
v 0.500000 0.500000 -0.500000
v 0.500000 1.500000 -0.500000
v 0.500000 1.500000 0.500000
v -0.500000 -2.500000 2.500000
v -0.500000 -2.500000 1.500000
v 0.500000 -2.500000 1.500000
v 0.500000 -2.500000 2.500000
v -0.500000 -1.500000 1.500000
v 0.500000 -1.500000 1.500000
v 0.500000 -2.500000 1.500000
v -0.500000 -2.500000 1.500000
v -0.500000 -1.500000 2.500000
v -0.500000 -2.500000 2.500000
v 0.500000 -2.500000 2.500000
v 0.500000 -1.500000 2.500000
v -0.500000 -1.500000 2.500000
v -0.500000 -1.500000 1.500000
v -0.500000 -2.500000 1.500000
v -0.500000 -2.500000 2.500000
v 0.500000 -2.500000 2.500000
v 0.500000 -2.500000 1.500000
v 0.500000 -1.500000 1.500000
v 0.500000 -1.500000 2.500000
v -0.500000 -0.500000 1.500000
v 0.500000 -0.500000 1.500000
v 0.500000 -1.500000 1.500000
v -0.500000 -1.500000 1.500000
v -0.500000 -0.500000 2.500000
v -0.500000 -1.500000 2.500000
v 0.500000 -1.500000 2.500000
v 0.500000 -0.500000 2.500000
v -0.500000 -0.500000 2.500000
v -0.500000 -0.500000 1.500000
v -0.500000 -1.500000 1.500000
v -0.500000 -1.500000 2.500000
v 0.500000 -1.500000 2.500000
v 0.500000 -1.500000 1.500000
v 0.500000 -0.500000 1.500000
v 0.500000 -0.500000 2.500000
v -0.500000 0.500000 1.500000
v 0.500000 0.500000 1.500000
v 0.500000 -0.500000 1.500000
v -0.500000 -0.500000 1.500000
v -0.500000 0.500000 2.500000
v -0.500000 -0.500000 2.500000
v 0.500000 -0.500000 2.500000
v 0.500000 0.500000 2.500000
v -0.500000 0.500000 2.500000
v -0.500000 0.500000 1.500000
v -0.500000 -0.500000 1.500000
v -0.500000 -0.500000 2.500000
v 0.500000 -0.500000 2.500000
v 0.500000 -0.500000 1.500000
v 0.500000 0.500000 1.500000
v 0.500000 0.500000 2.500000
v 0.500000 1.500000 2.500000
v 0.500000 1.500000 1.500000
v -0.500000 1.500000 1.500000
v -0.500000 1.500000 2.500000
v -0.500000 1.500000 1.500000
v 0.500000 1.500000 1.500000
v 0.500000 0.500000 1.500000
v -0.500000 0.500000 1.500000
v -0.500000 1.500000 2.500000
v -0.500000 0.500000 2.500000
v 0.500000 0.500000 2.500000
v 0.500000 1.500000 2.500000
v -0.500000 1.500000 2.500000
v -0.500000 1.500000 1.500000
v -0.500000 0.500000 1.500000
v -0.500000 0.500000 2.500000
v 0.500000 0.500000 2.500000
v 0.500000 0.500000 1.500000
v 0.500000 1.500000 1.500000
v 0.500000 1.500000 2.500000
vn -0.0000 -1.0000 -0.0000
vn -0.0000 1.0000 -0.0000
vn -0.0000 -0.0000 -1.0000
vn -1.0000 -0.0000 -0.0000
vn 1.0000 -0.0000 -0.0000
vn -0.0000 -0.0000 1.0000
vt 0.394531 0.960938
vt 0.394531 0.945312
vt 0.402344 0.945312
vt 0.402344 0.960938
vt 0.402324 0.945352
vt 0.402324 0.960898
vt 0.394551 0.960898
vt 0.394551 0.945352
s 0
usemtl terrain_atlas.terrain.010
f 1/1/1 2/2/1 3/3/1
f 4/4/1 1/1/1 3/3/1
f 5/5/2 6/6/2 7/7/2
f 8/8/2 5/5/2 7/7/2
f 9/6/3 10/7/3 11/8/3
f 12/5/3 9/6/3 11/8/3
f 13/6/4 14/7/4 15/8/4
f 16/5/4 13/6/4 15/8/4
f 17/8/5 18/5/5 19/6/5
f 20/7/5 17/8/5 19/6/5
f 21/1/1 22/2/1 23/3/1
f 24/4/1 21/1/1 23/3/1
f 25/5/2 26/6/2 27/7/2
f 28/8/2 25/5/2 27/7/2
f 29/6/3 30/7/3 31/8/3
f 32/5/3 29/6/3 31/8/3
f 33/6/4 34/7/4 35/8/4
f 36/5/4 33/6/4 35/8/4
f 37/8/5 38/5/5 39/6/5
f 40/7/5 37/8/5 39/6/5
f 41/1/1 42/2/1 43/3/1
f 44/4/1 41/1/1 43/3/1
f 45/7/6 46/8/6 47/5/6
f 48/6/6 45/7/6 47/5/6
f 49/6/4 50/7/4 51/8/4
f 52/5/4 49/6/4 51/8/4
f 53/8/5 54/5/5 55/6/5
f 56/7/5 53/8/5 55/6/5
f 57/6/3 58/7/3 59/8/3
f 60/5/3 57/6/3 59/8/3
f 61/7/6 62/8/6 63/5/6
f 64/6/6 61/7/6 63/5/6
f 65/6/4 66/7/4 67/8/4
f 68/5/4 65/6/4 67/8/4
f 69/8/5 70/5/5 71/6/5
f 72/7/5 69/8/5 71/6/5
f 73/6/3 74/7/3 75/8/3
f 76/5/3 73/6/3 75/8/3
f 77/7/6 78/8/6 79/5/6
f 80/6/6 77/7/6 79/5/6
f 81/6/4 82/7/4 83/8/4
f 84/5/4 81/6/4 83/8/4
f 85/8/5 86/5/5 87/6/5
f 88/7/5 85/8/5 87/6/5
f 89/5/2 90/6/2 91/7/2
f 92/8/2 89/5/2 91/7/2
f 93/7/6 94/8/6 95/5/6
f 96/6/6 93/7/6 95/5/6
f 97/6/4 98/7/4 99/8/4
f 100/5/4 97/6/4 99/8/4
f 101/8/5 102/5/5 103/6/5
f 104/7/5 101/8/5 103/6/5
f 105/1/1 106/2/1 107/3/1
f 108/4/1 105/1/1 107/3/1
f 109/6/3 110/7/3 111/8/3
f 112/5/3 109/6/3 111/8/3
f 113/7/6 114/8/6 115/5/6
f 116/6/6 113/7/6 115/5/6
f 117/6/4 118/7/4 119/8/4
f 120/5/4 117/6/4 119/8/4
f 121/8/5 122/5/5 123/6/5
f 124/7/5 121/8/5 123/6/5
f 125/6/3 126/7/3 127/8/3
f 128/5/3 125/6/3 127/8/3
f 129/7/6 130/8/6 131/5/6
f 132/6/6 129/7/6 131/5/6
f 133/6/4 134/7/4 135/8/4
f 136/5/4 133/6/4 135/8/4
f 137/8/5 138/5/5 139/6/5
f 140/7/5 137/8/5 139/6/5
f 141/6/3 142/7/3 143/8/3
f 144/5/3 141/6/3 143/8/3
f 145/7/6 146/8/6 147/5/6
f 148/6/6 145/7/6 147/5/6
f 149/6/4 150/7/4 151/8/4
f 152/5/4 149/6/4 151/8/4
f 153/8/5 154/5/5 155/6/5
f 156/7/5 153/8/5 155/6/5
f 157/5/2 158/6/2 159/7/2
f 160/8/2 157/5/2 159/7/2
f 161/6/3 162/7/3 163/8/3
f 164/5/3 161/6/3 163/8/3
f 165/7/6 166/8/6 167/5/6
f 168/6/6 165/7/6 167/5/6
f 169/6/4 170/7/4 171/8/4
f 172/5/4 169/6/4 171/8/4
f 173/8/5 174/5/5 175/6/5
f 176/7/5 173/8/5 175/6/5
o node_2
v -2.500000 -1.500000 -1.500000
v -2.500000 -1.500000 -2.500000
v -1.500000 -1.500000 -2.500000
v -1.500000 -1.500000 -1.500000
v -1.500000 -0.500000 -1.500000
v -1.500000 -0.500000 -2.500000
v -2.500000 -0.500000 -2.500000
v -2.500000 -0.500000 -1.500000
v -2.500000 -0.500000 -2.500000
v -1.500000 -0.500000 -2.500000
v -1.500000 -1.500000 -2.500000
v -2.500000 -1.500000 -2.500000
v -2.500000 -0.500000 -1.500000
v -2.500000 -1.500000 -1.500000
v -1.500000 -1.500000 -1.500000
v -1.500000 -0.500000 -1.500000
v -2.500000 -0.500000 -1.500000
v -2.500000 -0.500000 -2.500000
v -2.500000 -1.500000 -2.500000
v -2.500000 -1.500000 -1.500000
v -1.500000 -1.500000 -1.500000
v -1.500000 -1.500000 -2.500000
v -1.500000 -0.500000 -2.500000
v -1.500000 -0.500000 -1.500000
v -0.500000 -2.500000 -1.500000
v -0.500000 -2.500000 -2.500000
v 0.500000 -2.500000 -2.500000
v 0.500000 -2.500000 -1.500000
v -0.500000 -1.500000 -2.500000
v 0.500000 -1.500000 -2.500000
v 0.500000 -2.500000 -2.500000
v -0.500000 -2.500000 -2.500000
v -0.500000 -1.500000 -1.500000
v -0.500000 -2.500000 -1.500000
v 0.500000 -2.500000 -1.500000
v 0.500000 -1.500000 -1.500000
v -0.500000 -1.500000 -1.500000
v -0.500000 -1.500000 -2.500000
v -0.500000 -2.500000 -2.500000
v -0.500000 -2.500000 -1.500000
v 0.500000 -2.500000 -1.500000
v 0.500000 -2.500000 -2.500000
v 0.500000 -1.500000 -2.500000
v 0.500000 -1.500000 -1.500000
v -0.500000 -0.500000 -2.500000
v 0.500000 -0.500000 -2.500000
v 0.500000 -1.500000 -2.500000
v -0.500000 -1.500000 -2.500000
v -0.500000 -0.500000 -1.500000
v -0.500000 -1.500000 -1.500000
v 0.500000 -1.500000 -1.500000
v 0.500000 -0.500000 -1.500000
v -0.500000 -0.500000 -1.500000
v -0.500000 -0.500000 -2.500000
v -0.500000 -1.500000 -2.500000
v -0.500000 -1.500000 -1.500000
v 0.500000 -1.500000 -1.500000
v 0.500000 -1.500000 -2.500000
v 0.500000 -0.500000 -2.500000
v 0.500000 -0.500000 -1.500000
v -0.500000 0.500000 -2.500000
v 0.500000 0.500000 -2.500000
v 0.500000 -0.500000 -2.500000
v -0.500000 -0.500000 -2.500000
v -0.500000 0.500000 -1.500000
v -0.500000 -0.500000 -1.500000
v 0.500000 -0.500000 -1.500000
v 0.500000 0.500000 -1.500000
v -0.500000 0.500000 -1.500000
v -0.500000 0.500000 -2.500000
v -0.500000 -0.500000 -2.500000
v -0.500000 -0.500000 -1.500000
v 0.500000 -0.500000 -1.500000
v 0.500000 -0.500000 -2.500000
v 0.500000 0.500000 -2.500000
v 0.500000 0.500000 -1.500000
v 0.500000 1.500000 -1.500000
v 0.500000 1.500000 -2.500000
v -0.500000 1.500000 -2.500000
v -0.500000 1.500000 -1.500000
v -0.500000 1.500000 -2.500000
v 0.500000 1.500000 -2.500000
v 0.500000 0.500000 -2.500000
v -0.500000 0.500000 -2.500000
v -0.500000 1.500000 -1.500000
v -0.500000 0.500000 -1.500000
v 0.500000 0.500000 -1.500000
v 0.500000 1.500000 -1.500000
v -0.500000 1.500000 -1.500000
v -0.500000 1.500000 -2.500000
v -0.500000 0.500000 -2.500000
v -0.500000 0.500000 -1.500000
v 0.500000 0.500000 -1.500000
v 0.500000 0.500000 -2.500000
v 0.500000 1.500000 -2.500000
v 0.500000 1.500000 -1.500000
vn -0.0000 -1.0000 -0.0000
vn -0.0000 1.0000 -0.0000
vn -0.0000 -0.0000 -1.0000
vn -0.0000 -0.0000 1.0000
vn -1.0000 -0.0000 -0.0000
vn 1.0000 -0.0000 -0.0000
vt 0.457031 0.523438
vt 0.457031 0.507812
vt 0.464844 0.507812
vt 0.464844 0.523438
vt 0.464824 0.507852
vt 0.464824 0.523398
vt 0.457051 0.523398
vt 0.457051 0.507852
vt 0.394531 0.960938
vt 0.394531 0.945312
vt 0.402344 0.945312
vt 0.402344 0.960938
vt 0.402324 0.960898
vt 0.394551 0.960898
vt 0.394551 0.945352
vt 0.402324 0.945352
s 0
usemtl terrain_atlas.terrain.010
f 177/9/7 178/10/7 179/11/7
f 180/12/7 177/9/7 179/11/7
f 181/13/8 182/14/8 183/15/8
f 184/16/8 181/13/8 183/15/8
f 185/14/9 186/15/9 187/16/9
f 188/13/9 185/14/9 187/16/9
f 189/15/10 190/16/10 191/13/10
f 192/14/10 189/15/10 191/13/10
f 193/14/11 194/15/11 195/16/11
f 196/13/11 193/14/11 195/16/11
f 197/16/12 198/13/12 199/14/12
f 200/15/12 197/16/12 199/14/12
f 201/17/7 202/18/7 203/19/7
f 204/20/7 201/17/7 203/19/7
f 205/21/9 206/22/9 207/23/9
f 208/24/9 205/21/9 207/23/9
f 209/22/10 210/23/10 211/24/10
f 212/21/10 209/22/10 211/24/10
f 213/21/11 214/22/11 215/23/11
f 216/24/11 213/21/11 215/23/11
f 217/23/12 218/24/12 219/21/12
f 220/22/12 217/23/12 219/21/12
f 221/21/9 222/22/9 223/23/9
f 224/24/9 221/21/9 223/23/9
f 225/22/10 226/23/10 227/24/10
f 228/21/10 225/22/10 227/24/10
f 229/21/11 230/22/11 231/23/11
f 232/24/11 229/21/11 231/23/11
f 233/23/12 234/24/12 235/21/12
f 236/22/12 233/23/12 235/21/12
f 237/21/9 238/22/9 239/23/9
f 240/24/9 237/21/9 239/23/9
f 241/22/10 242/23/10 243/24/10
f 244/21/10 241/22/10 243/24/10
f 245/21/11 246/22/11 247/23/11
f 248/24/11 245/21/11 247/23/11
f 249/23/12 250/24/12 251/21/12
f 252/22/12 249/23/12 251/21/12
f 253/24/8 254/21/8 255/22/8
f 256/23/8 253/24/8 255/22/8
f 257/21/9 258/22/9 259/23/9
f 260/24/9 257/21/9 259/23/9
f 261/22/10 262/23/10 263/24/10
f 264/21/10 261/22/10 263/24/10
f 265/21/11 266/22/11 267/23/11
f 268/24/11 265/21/11 267/23/11
f 269/23/12 270/24/12 271/21/12
f 272/22/12 269/23/12 271/21/12
