# Blender 3.6.1
# www.blender.org
mtllib 12_maze.mtl
o node_1
v -0.500000 -2.500000 -0.500000
v -0.500000 -2.500000 -1.500000
v 0.500000 -2.500000 -1.500000
v 0.500000 -2.500000 -0.500000
v -0.500000 -1.500000 -1.500000
v 0.500000 -1.500000 -1.500000
v 0.500000 -2.500000 -1.500000
v -0.500000 -2.500000 -1.500000
v -0.500000 -1.500000 -0.500000
v -0.500000 -1.500000 -1.500000
v -0.500000 -2.500000 -1.500000
v -0.500000 -2.500000 -0.500000
v 0.500000 -2.500000 -0.500000
v 0.500000 -2.500000 -1.500000
v 0.500000 -1.500000 -1.500000
v 0.500000 -1.500000 -0.500000
v -0.500000 -0.500000 -1.500000
v 0.500000 -0.500000 -1.500000
v 0.500000 -1.500000 -1.500000
v -0.500000 -1.500000 -1.500000
v -0.500000 -0.500000 -0.500000
v -0.500000 -0.500000 -1.500000
v -0.500000 -1.500000 -1.500000
v -0.500000 -1.500000 -0.500000
v 0.500000 -1.500000 -0.500000
v 0.500000 -1.500000 -1.500000
v 0.500000 -0.500000 -1.500000
v 0.500000 -0.500000 -0.500000
v -0.500000 0.500000 -1.500000
v 0.500000 0.500000 -1.500000
v 0.500000 -0.500000 -1.500000
v -0.500000 -0.500000 -1.500000
v -0.500000 0.500000 -0.500000
v -0.500000 -0.500000 -0.500000
v 0.500000 -0.500000 -0.500000
v 0.500000 0.500000 -0.500000
v -0.500000 0.500000 -0.500000
v -0.500000 0.500000 -1.500000
v -0.500000 -0.500000 -1.500000
v -0.500000 -0.500000 -0.500000
v 0.500000 -0.500000 -0.500000
v 0.500000 -0.500000 -1.500000
v 0.500000 0.500000 -1.500000
v 0.500000 0.500000 -0.500000
v 0.500000 1.500000 -0.500000
v 0.500000 1.500000 -1.500000
v -0.500000 1.500000 -1.500000
v -0.500000 1.500000 -0.500000
v -0.500000 1.500000 -1.500000
v 0.500000 1.500000 -1.500000
v 0.500000 0.500000 -1.500000
v -0.500000 0.500000 -1.500000
v -0.500000 1.500000 -0.500000
v -0.500000 1.500000 -1.500000
v -0.500000 0.500000 -1.500000
v -0.500000 0.500000 -0.500000
v 0.500000 0.500000 -0.500000
v 0.500000 0.500000 -1.500000
v 0.500000 1.500000 -1.500000
v 0.500000 1.500000 -0.500000
v -0.500000 -2.500000 0.500000
v -0.500000 -2.500000 -0.500000
v 0.500000 -2.500000 -0.500000
v 0.500000 -2.500000 0.500000
v -0.500000 -1.500000 0.500000
v -0.500000 -2.500000 0.500000
v 0.500000 -2.500000 0.500000
v 0.500000 -1.500000 0.500000
v -0.500000 -1.500000 0.500000
v -0.500000 -1.500000 -0.500000
v -0.500000 -2.500000 -0.500000
v -0.500000 -2.500000 0.500000
v 0.500000 -2.500000 0.500000
v 0.500000 -2.500000 -0.500000
v 0.500000 -1.500000 -0.500000
v 0.500000 -1.500000 0.500000
v 0.500000 -0.500000 0.500000
v 0.500000 -0.500000 -0.500000
v -0.500000 -0.500000 -0.500000
v -0.500000 -0.500000 0.500000
v -0.500000 -0.500000 0.500000
v -0.500000 -1.500000 0.500000
v 0.500000 -1.500000 0.500000
v 0.500000 -0.500000 0.500000
v -0.500000 -0.500000 0.500000
v -0.500000 -0.500000 -0.500000
v -0.500000 -1.500000 -0.500000
v -0.500000 -1.500000 0.500000
v 0.500000 -1.500000 0.500000
v 0.500000 -1.500000 -0.500000
v 0.500000 -0.500000 -0.500000
v 0.500000 -0.500000 0.500000
v -0.500000 0.500000 0.500000
v -0.500000 0.500000 -0.500000
v 0.500000 0.500000 -0.500000
v 0.500000 0.500000 0.500000
v 0.500000 1.500000 0.500000
v 0.500000 1.500000 -0.500000
v -0.500000 1.500000 -0.500000
v -0.500000 1.500000 0.500000
v -0.500000 1.500000 0.500000
v -0.500000 0.500000 0.500000
v 0.500000 0.500000 0.500000
v 0.500000 1.500000 0.500000
v -0.500000 1.500000 0.500000
v -0.500000 1.500000 -0.500000
v -0.500000 0.500000 -0.500000
v -0.500000 0.500000 0.500000
v 0.500000 0.500000 0.500000
v 0.500000 0.500000 -0.500000
v 0.500000 1.500000 -0.500000
v 0.500000 1.500000 0.500000
v -0.500000 -2.500000 2.500000
v -0.500000 -2.500000 1.500000
v 0.500000 -2.500000 1.500000
v 0.500000 -2.500000 2.500000
v -0.500000 -1.500000 1.500000
v 0.500000 -1.500000 1.500000
v 0.500000 -2.500000 1.500000
v -0.500000 -2.500000 1.500000
v -0.500000 -1.500000 2.500000
v -0.500000 -2.500000 2.500000
v 0.500000 -2.500000 2.500000
v 0.500000 -1.500000 2.500000
v -0.500000 -1.500000 2.500000
v -0.500000 -1.500000 1.500000
v -0.500000 -2.500000 1.500000
v -0.500000 -2.500000 2.500000
v 0.500000 -2.500000 2.500000
v 0.500000 -2.500000 1.500000
v 0.500000 -1.500000 1.500000
v 0.500000 -1.500000 2.500000
v -0.500000 -0.500000 1.500000
v 0.500000 -0.500000 1.500000
v 0.500000 -1.500000 1.500000
v -0.500000 -1.500000 1.500000
v -0.500000 -0.500000 2.500000
v -0.500000 -1.500000 2.500000
v 0.500000 -1.500000 2.500000
v 0.500000 -0.500000 2.500000
v -0.500000 -0.500000 2.500000
v -0.500000 -0.500000 1.500000
v -0.500000 -1.500000 1.500000
v -0.500000 -1.500000 2.500000
v 0.500000 -1.500000 2.500000
v 0.500000 -1.500000 1.500000
v 0.500000 -0.500000 1.500000
v 0.500000 -0.500000 2.500000
v -0.500000 0.500000 1.500000
v 0.500000 0.500000 1.500000
v 0.500000 -0.500000 1.500000
v -0.500000 -0.500000 1.500000
v -0.500000 0.500000 2.500000
v -0.500000 -0.500000 2.500000
v 0.500000 -0.500000 2.500000
v 0.500000 0.500000 2.500000
v -0.500000 0.500000 2.500000
v -0.500000 0.500000 1.500000
v -0.500000 -0.500000 1.500000
v -0.500000 -0.500000 2.500000
v 0.500000 -0.500000 2.500000
v 0.500000 -0.500000 1.500000
v 0.500000 0.500000 1.500000
v 0.500000 0.500000 2.500000
v 0.500000 1.500000 2.500000
v 0.500000 1.500000 1.500000
v -0.500000 1.500000 1.500000
v -0.500000 1.500000 2.500000
v -0.500000 1.500000 1.500000
v 0.500000 1.500000 1.500000
v 0.500000 0.500000 1.500000
v -0.500000 0.500000 1.500000
v -0.500000 1.500000 2.500000
v -0.500000 0.500000 2.500000
v 0.500000 0.500000 2.500000
v 0.500000 1.500000 2.500000
v -0.500000 1.500000 2.500000
v -0.500000 1.500000 1.500000
v -0.500000 0.500000 1.500000
v -0.500000 0.500000 2.500000
v 0.500000 0.500000 2.500000
v 0.500000 0.500000 1.500000
v 0.500000 1.500000 1.500000
v 0.500000 1.500000 2.500000
vn -0.0000 -1.0000 -0.0000
vn -0.0000 -0.0000 -1.0000
vn -1.0000 -0.0000 -0.0000
vn 1.0000 -0.0000 -0.0000
vn -0.0000 -0.0000 1.0000
vn -0.0000 1.0000 -0.0000
vt 0.394531 0.960938
vt 0.394531 0.945312
vt 0.402344 0.945312
vt 0.402344 0.960938
vt 0.402324 0.960898
vt 0.394551 0.960898
vt 0.394551 0.945352
vt 0.402324 0.945352
s 0
usemtl terrain_atlas.terrain.012
f 1/1/1 2/2/1 3/3/1
f 4/4/1 1/1/1 3/3/1
f 5/5/2 6/6/2 7/7/2
f 8/8/2 5/5/2 7/7/2
f 9/5/3 10/6/3 11/7/3
f 12/8/3 9/5/3 11/7/3
f 13/7/4 14/8/4 15/5/4
f 16/6/4 13/7/4 15/5/4
f 17/5/2 18/6/2 19/7/2
f 20/8/2 17/5/2 19/7/2
f 21/5/3 22/6/3 23/7/3
f 24/8/3 21/5/3 23/7/3
f 25/7/4 26/8/4 27/5/4
f 28/6/4 25/7/4 27/5/4
f 29/5/2 30/6/2 31/7/2
f 32/8/2 29/5/2 31/7/2
f 33/6/5 34/7/5 35/8/5
f 36/5/5 33/6/5 35/8/5
f 37/5/3 38/6/3 39/7/3
f 40/8/3 37/5/3 39/7/3
f 41/7/4 42/8/4 43/5/4
f 44/6/4 41/7/4 43/5/4
f 45/8/6 46/5/6 47/6/6
f 48/7/6 45/8/6 47/6/6
f 49/5/2 50/6/2 51/7/2
f 52/8/2 49/5/2 51/7/2
f 53/5/3 54/6/3 55/7/3
f 56/8/3 53/5/3 55/7/3
f 57/7/4 58/8/4 59/5/4
f 60/6/4 57/7/4 59/5/4
f 61/1/1 62/2/1 63/3/1
f 64/4/1 61/1/1 63/3/1
f 65/6/5 66/7/5 67/8/5
f 68/5/5 65/6/5 67/8/5
f 69/5/3 70/6/3 71/7/3
f 72/8/3 69/5/3 71/7/3
f 73/7/4 74/8/4 75/5/4
f 76/6/4 73/7/4 75/5/4
f 77/8/6 78/5/6 79/6/6
f 80/7/6 77/8/6 79/6/6
f 81/6/5 82/7/5 83/8/5
f 84/5/5 81/6/5 83/8/5
f 85/5/3 86/6/3 87/7/3
f 88/8/3 85/5/3 87/7/3
f 89/7/4 90/8/4 91/5/4
f 92/6/4 89/7/4 91/5/4
f 93/1/1 94/2/1 95/3/1
f 96/4/1 93/1/1 95/3/1
f 97/8/6 98/5/6 99/6/6
f 100/7/6 97/8/6 99/6/6
f 101/6/5 102/7/5 103/8/5
f 104/5/5 101/6/5 103/8/5
f 105/5/3 106/6/3 107/7/3
f 108/8/3 105/5/3 107/7/3
f 109/7/4 110/8/4 111/5/4
f 112/6/4 109/7/4 111/5/4
f 113/1/1 114/2/1 115/3/1
f 116/4/1 113/1/1 115/3/1
f 117/5/2 118/6/2 119/7/2
f 120/8/2 117/5/2 119/7/2
f 121/6/5 122/7/5 123/8/5
f 124/5/5 121/6/5 123/8/5
f 125/5/3 126/6/3 127/7/3
f 128/8/3 125/5/3 127/7/3
f 129/7/4 130/8/4 131/5/4
f 132/6/4 129/7/4 131/5/4
f 133/5/2 134/6/2 135/7/2
f 136/8/2 133/5/2 135/7/2
f 137/6/5 138/7/5 139/8/5
f 140/5/5 137/6/5 139/8/5
f 141/5/3 142/6/3 143/7/3
f 144/8/3 141/5/3 143/7/3
f 145/7/4 146/8/4 147/5/4
f 148/6/4 145/7/4 147/5/4
f 149/5/2 150/6/2 151/7/2
f 152/8/2 149/5/2 151/7/2
f 153/6/5 154/7/5 155/8/5
f 156/5/5 153/6/5 155/8/5
f 157/5/3 158/6/3 159/7/3
f 160/8/3 157/5/3 159/7/3
f 161/7/4 162/8/4 163/5/4
f 164/6/4 161/7/4 163/5/4
f 165/8/6 166/5/6 167/6/6
f 168/7/6 165/8/6 167/6/6
f 169/5/2 170/6/2 171/7/2
f 172/8/2 169/5/2 171/7/2
f 173/6/5 174/7/5 175/8/5
f 176/5/5 173/6/5 175/8/5
f 177/5/3 178/6/3 179/7/3
f 180/8/3 177/5/3 179/7/3
f 181/7/4 182/8/4 183/5/4
f 184/6/4 181/7/4 183/5/4
o node_2
v -2.500000 -1.500000 -1.500000
v -2.500000 -1.500000 -2.500000
v -1.500000 -1.500000 -2.500000
v -1.500000 -1.500000 -1.500000
v -1.500000 -0.500000 -1.500000
v -1.500000 -0.500000 -2.500000
v -2.500000 -0.500000 -2.500000
v -2.500000 -0.500000 -1.500000
v -2.500000 -0.500000 -2.500000
v -1.500000 -0.500000 -2.500000
v -1.500000 -1.500000 -2.500000
v -2.500000 -1.500000 -2.500000
v -2.500000 -0.500000 -1.500000
v -2.500000 -1.500000 -1.500000
v -1.500000 -1.500000 -1.500000
v -1.500000 -0.500000 -1.500000
v -2.500000 -0.500000 -1.500000
v -2.500000 -0.500000 -2.500000
v -2.500000 -1.500000 -2.500000
v -2.500000 -1.500000 -1.500000
v -1.500000 -1.500000 -1.500000
v -1.500000 -1.500000 -2.500000
v -1.500000 -0.500000 -2.500000
v -1.500000 -0.500000 -1.500000
v -0.500000 -2.500000 -1.500000
v -0.500000 -2.500000 -2.500000
v 0.500000 -2.500000 -2.500000
v 0.500000 -2.500000 -1.500000
v 0.500000 -1.500000 -1.500000
v 0.500000 -1.500000 -2.500000
v -0.500000 -1.500000 -2.500000
v -0.500000 -1.500000 -1.500000
v -0.500000 -1.500000 -2.500000
v 0.500000 -1.500000 -2.500000
v 0.500000 -2.500000 -2.500000
v -0.500000 -2.500000 -2.500000
v -0.500000 -1.500000 -1.500000
v -0.500000 -2.500000 -1.500000
v 0.500000 -2.500000 -1.500000
v 0.500000 -1.500000 -1.500000
v -0.500000 -1.500000 -1.500000
v -0.500000 -1.500000 -2.500000
v -0.500000 -2.500000 -2.500000
v -0.500000 -2.500000 -1.500000
v 0.500000 -2.500000 -1.500000
v 0.500000 -2.500000 -2.500000
v 0.500000 -1.500000 -2.500000
v 0.500000 -1.500000 -1.500000
v -0.500000 -0.500000 -1.500000
v -0.500000 -0.500000 -2.500000
v 0.500000 -0.500000 -2.500000
v 0.500000 -0.500000 -1.500000
v -0.500000 0.500000 -2.500000
v 0.500000 0.500000 -2.500000
v 0.500000 -0.500000 -2.500000
v -0.500000 -0.500000 -2.500000
v -0.500000 0.500000 -1.500000
v -0.500000 -0.500000 -1.500000
v 0.500000 -0.500000 -1.500000
v 0.500000 0.500000 -1.500000
v -0.500000 0.500000 -1.500000
v -0.500000 0.500000 -2.500000
v -0.500000 -0.500000 -2.500000
v -0.500000 -0.500000 -1.500000
v 0.500000 -0.500000 -1.500000
v 0.500000 -0.500000 -2.500000
v 0.500000 0.500000 -2.500000
v 0.500000 0.500000 -1.500000
v 0.500000 1.500000 -1.500000
v 0.500000 1.500000 -2.500000
v -0.500000 1.500000 -2.500000
v -0.500000 1.500000 -1.500000
v -0.500000 1.500000 -2.500000
v 0.500000 1.500000 -2.500000
v 0.500000 0.500000 -2.500000
v -0.500000 0.500000 -2.500000
v -0.500000 1.500000 -1.500000
v -0.500000 0.500000 -1.500000
v 0.500000 0.500000 -1.500000
v 0.500000 1.500000 -1.500000
v -0.500000 1.500000 -1.500000
v -0.500000 1.500000 -2.500000
v -0.500000 0.500000 -2.500000
v -0.500000 0.500000 -1.500000
v 0.500000 0.500000 -1.500000
v 0.500000 0.500000 -2.500000
v 0.500000 1.500000 -2.500000
v 0.500000 1.500000 -1.500000
vn -0.0000 -1.0000 -0.0000
vn -0.0000 1.0000 -0.0000
vn -0.0000 -0.0000 -1.0000
vn -0.0000 -0.0000 1.0000
vn -1.0000 -0.0000 -0.0000
vn 1.0000 -0.0000 -0.0000
vt 0.457031 0.523438
vt 0.457031 0.507812
vt 0.464844 0.507812
vt 0.464844 0.523438
vt 0.464824 0.507852
vt 0.464824 0.523398
vt 0.457051 0.523398
vt 0.457051 0.507852
vt 0.394531 0.960938
vt 0.394531 0.945312
vt 0.402344 0.945312
vt 0.402344 0.960938
vt 0.402324 0.945352
vt 0.402324 0.960898
vt 0.394551 0.960898
vt 0.394551 0.945352
s 0
usemtl terrain_atlas.terrain.012
f 185/9/7 186/10/7 187/11/7
f 188/12/7 185/9/7 187/11/7
f 189/13/8 190/14/8 191/15/8
f 192/16/8 189/13/8 191/15/8
f 193/14/9 194/15/9 195/16/9
f 196/13/9 193/14/9 195/16/9
f 197/15/10 198/16/10 199/13/10
f 200/14/10 197/15/10 199/13/10
f 201/14/11 202/15/11 203/16/11
f 204/13/11 201/14/11 203/16/11
f 205/16/12 206/13/12 207/14/12
f 208/15/12 205/16/12 207/14/12
f 209/17/7 210/18/7 211/19/7
f 212/20/7 209/17/7 211/19/7
f 213/21/8 214/22/8 215/23/8
f 216/24/8 213/21/8 215/23/8
f 217/22/9 218/23/9 219/24/9
f 220/21/9 217/22/9 219/24/9
f 221/23/10 222/24/10 223/21/10
f 224/22/10 221/23/10 223/21/10
f 225/22/11 226/23/11 227/24/11
f 228/21/11 225/22/11 227/24/11
f 229/24/12 230/21/12 231/22/12
f 232/23/12 229/24/12 231/22/12
f 233/17/7 234/18/7 235/19/7
f 236/20/7 233/17/7 235/19/7
f 237/22/9 238/23/9 239/24/9
f 240/21/9 237/22/9 239/24/9
f 241/23/10 242/24/10 243/21/10
f 244/22/10 241/23/10 243/21/10
f 245/22/11 246/23/11 247/24/11
f 248/21/11 245/22/11 247/24/11
f 249/24/12 250/21/12 251/22/12
f 252/23/12 249/24/12 251/22/12
f 253/21/8 254/22/8 255/23/8
f 256/24/8 253/21/8 255/23/8
f 257/22/9 258/23/9 259/24/9
f 260/21/9 257/22/9 259/24/9
f 261/23/10 262/24/10 263/21/10
f 264/22/10 261/23/10 263/21/10
f 265/22/11 266/23/11 267/24/11
f 268/21/11 265/22/11 267/24/11
f 269/24/12 270/21/12 271/22/12
f 272/23/12 269/24/12 271/22/12
