# Blender 3.6.1
# www.blender.org
mtllib 13_void.mtl
o node_1
v -0.500000 -2.500000 -0.500000
v -0.500000 -2.500000 -1.500000
v 0.500000 -2.500000 -1.500000
v 0.500000 -2.500000 -0.500000
v -0.500000 -1.500000 -1.500000
v 0.500000 -1.500000 -1.500000
v 0.500000 -2.500000 -1.500000
v -0.500000 -2.500000 -1.500000
v -0.500000 -1.500000 -0.500000
v -0.500000 -1.500000 -1.500000
v -0.500000 -2.500000 -1.500000
v -0.500000 -2.500000 -0.500000
v 0.500000 -2.500000 -0.500000
v 0.500000 -2.500000 -1.500000
v 0.500000 -1.500000 -1.500000
v 0.500000 -1.500000 -0.500000
v 0.500000 -0.500000 -0.500000
v 0.500000 -0.500000 -1.500000
v -0.500000 -0.500000 -1.500000
v -0.500000 -0.500000 -0.500000
v -0.500000 -0.500000 -1.500000
v 0.500000 -0.500000 -1.500000
v 0.500000 -1.500000 -1.500000
v -0.500000 -1.500000 -1.500000
v -0.500000 -0.500000 -0.500000
v -0.500000 -1.500000 -0.500000
v 0.500000 -1.500000 -0.500000
v 0.500000 -0.500000 -0.500000
v -0.500000 -0.500000 -0.500000
v -0.500000 -0.500000 -1.500000
v -0.500000 -1.500000 -1.500000
v -0.500000 -1.500000 -0.500000
v 0.500000 -1.500000 -0.500000
v 0.500000 -1.500000 -1.500000
v 0.500000 -0.500000 -1.500000
v 0.500000 -0.500000 -0.500000
v -0.500000 0.500000 -0.500000
v -0.500000 0.500000 -1.500000
v 0.500000 0.500000 -1.500000
v 0.500000 0.500000 -0.500000
v 0.500000 1.500000 -0.500000
v 0.500000 1.500000 -1.500000
v -0.500000 1.500000 -1.500000
v -0.500000 1.500000 -0.500000
v -0.500000 1.500000 -1.500000
v 0.500000 1.500000 -1.500000
v 0.500000 0.500000 -1.500000
v -0.500000 0.500000 -1.500000
v -0.500000 1.500000 -0.500000
v -0.500000 1.500000 -1.500000
v -0.500000 0.500000 -1.500000
v -0.500000 0.500000 -0.500000
v 0.500000 0.500000 -0.500000
v 0.500000 0.500000 -1.500000
v 0.500000 1.500000 -1.500000
v 0.500000 1.500000 -0.500000
v -0.500000 -2.500000 0.500000
v -0.500000 -2.500000 -0.500000
v 0.500000 -2.500000 -0.500000
v 0.500000 -2.500000 0.500000
v 0.500000 -1.500000 0.500000
v 0.500000 -1.500000 -0.500000
v -0.500000 -1.500000 -0.500000
v -0.500000 -1.500000 0.500000
v -0.500000 -1.500000 0.500000
v -0.500000 -2.500000 0.500000
v 0.500000 -2.500000 0.500000
v 0.500000 -1.500000 0.500000
v -0.500000 -1.500000 0.500000
v -0.500000 -1.500000 -0.500000
v -0.500000 -2.500000 -0.500000
v -0.500000 -2.500000 0.500000
v 0.500000 -2.500000 0.500000
v 0.500000 -2.500000 -0.500000
v 0.500000 -1.500000 -0.500000
v 0.500000 -1.500000 0.500000
v -0.500000 0.500000 0.500000
v -0.500000 0.500000 -0.500000
v 0.500000 0.500000 -0.500000
v 0.500000 0.500000 0.500000
v 0.500000 1.500000 0.500000
v 0.500000 1.500000 -0.500000
v -0.500000 1.500000 -0.500000
v -0.500000 1.500000 0.500000
v -0.500000 1.500000 0.500000
v -0.500000 0.500000 0.500000
v 0.500000 0.500000 0.500000
v 0.500000 1.500000 0.500000
v -0.500000 1.500000 0.500000
v -0.500000 1.500000 -0.500000
v -0.500000 0.500000 -0.500000
v -0.500000 0.500000 0.500000
v 0.500000 0.500000 0.500000
v 0.500000 0.500000 -0.500000
v 0.500000 1.500000 -0.500000
v 0.500000 1.500000 0.500000
v -0.500000 -2.500000 2.500000
v -0.500000 -2.500000 1.500000
v 0.500000 -2.500000 1.500000
v 0.500000 -2.500000 2.500000
v -0.500000 -1.500000 1.500000
v 0.500000 -1.500000 1.500000
v 0.500000 -2.500000 1.500000
v -0.500000 -2.500000 1.500000
v -0.500000 -1.500000 2.500000
v -0.500000 -2.500000 2.500000
v 0.500000 -2.500000 2.500000
v 0.500000 -1.500000 2.500000
v -0.500000 -1.500000 2.500000
v -0.500000 -1.500000 1.500000
v -0.500000 -2.500000 1.500000
v -0.500000 -2.500000 2.500000
v 0.500000 -2.500000 2.500000
v 0.500000 -2.500000 1.500000
v 0.500000 -1.500000 1.500000
v 0.500000 -1.500000 2.500000
v -0.500000 -0.500000 1.500000
v 0.500000 -0.500000 1.500000
v 0.500000 -1.500000 1.500000
v -0.500000 -1.500000 1.500000
v -0.500000 -0.500000 2.500000
v -0.500000 -1.500000 2.500000
v 0.500000 -1.500000 2.500000
v 0.500000 -0.500000 2.500000
v -0.500000 -0.500000 2.500000
v -0.500000 -0.500000 1.500000
v -0.500000 -1.500000 1.500000
v -0.500000 -1.500000 2.500000
v 0.500000 -1.500000 2.500000
v 0.500000 -1.500000 1.500000
v 0.500000 -0.500000 1.500000
v 0.500000 -0.500000 2.500000
v -0.500000 0.500000 1.500000
v 0.500000 0.500000 1.500000
v 0.500000 -0.500000 1.500000
v -0.500000 -0.500000 1.500000
v -0.500000 0.500000 2.500000
v -0.500000 -0.500000 2.500000
v 0.500000 -0.500000 2.500000
v 0.500000 0.500000 2.500000
v -0.500000 0.500000 2.500000
v -0.500000 0.500000 1.500000
v -0.500000 -0.500000 1.500000
v -0.500000 -0.500000 2.500000
v 0.500000 -0.500000 2.500000
v 0.500000 -0.500000 1.500000
v 0.500000 0.500000 1.500000
v 0.500000 0.500000 2.500000
v 0.500000 1.500000 2.500000
v 0.500000 1.500000 1.500000
v -0.500000 1.500000 1.500000
v -0.500000 1.500000 2.500000
v -0.500000 1.500000 1.500000
v 0.500000 1.500000 1.500000
v 0.500000 0.500000 1.500000
v -0.500000 0.500000 1.500000
v -0.500000 1.500000 2.500000
v -0.500000 0.500000 2.500000
v 0.500000 0.500000 2.500000
v 0.500000 1.500000 2.500000
v -0.500000 1.500000 2.500000
v -0.500000 1.500000 1.500000
v -0.500000 0.500000 1.500000
v -0.500000 0.500000 2.500000
v 0.500000 0.500000 2.500000
v 0.500000 0.500000 1.500000
v 0.500000 1.500000 1.500000
v 0.500000 1.500000 2.500000
vn -0.0000 -1.0000 -0.0000
vn -0.0000 -0.0000 -1.0000
vn -1.0000 -0.0000 -0.0000
vn 1.0000 -0.0000 -0.0000
vn -0.0000 1.0000 -0.0000
vn -0.0000 -0.0000 1.0000
vt 0.394531 0.960938
vt 0.394531 0.945312
vt 0.402344 0.945312
vt 0.402344 0.960938
vt 0.402324 0.960898
vt 0.394551 0.960898
vt 0.394551 0.945352
vt 0.402324 0.945352
s 0
usemtl terrain_atlas.terrain.013
f 1/1/1 2/2/1 3/3/1
f 4/4/1 1/1/1 3/3/1
f 5/5/2 6/6/2 7/7/2
f 8/8/2 5/5/2 7/7/2
f 9/5/3 10/6/3 11/7/3
f 12/8/3 9/5/3 11/7/3
f 13/7/4 14/8/4 15/5/4
f 16/6/4 13/7/4 15/5/4
f 17/8/5 18/5/5 19/6/5
f 20/7/5 17/8/5 19/6/5
f 21/5/2 22/6/2 23/7/2
f 24/8/2 21/5/2 23/7/2
f 25/6/6 26/7/6 27/8/6
f 28/5/6 25/6/6 27/8/6
f 29/5/3 30/6/3 31/7/3
f 32/8/3 29/5/3 31/7/3
f 33/7/4 34/8/4 35/5/4
f 36/6/4 33/7/4 35/5/4
f 37/1/1 38/2/1 39/3/1
f 40/4/1 37/1/1 39/3/1
f 41/8/5 42/5/5 43/6/5
f 44/7/5 41/8/5 43/6/5
f 45/5/2 46/6/2 47/7/2
f 48/8/2 45/5/2 47/7/2
f 49/5/3 50/6/3 51/7/3
f 52/8/3 49/5/3 51/7/3
f 53/7/4 54/8/4 55/5/4
f 56/6/4 53/7/4 55/5/4
f 57/1/1 58/2/1 59/3/1
f 60/4/1 57/1/1 59/3/1
f 61/8/5 62/5/5 63/6/5
f 64/7/5 61/8/5 63/6/5
f 65/6/6 66/7/6 67/8/6
f 68/5/6 65/6/6 67/8/6
f 69/5/3 70/6/3 71/7/3
f 72/8/3 69/5/3 71/7/3
f 73/7/4 74/8/4 75/5/4
f 76/6/4 73/7/4 75/5/4
f 77/1/1 78/2/1 79/3/1
f 80/4/1 77/1/1 79/3/1
f 81/8/5 82/5/5 83/6/5
f 84/7/5 81/8/5 83/6/5
f 85/6/6 86/7/6 87/8/6
f 88/5/6 85/6/6 87/8/6
f 89/5/3 90/6/3 91/7/3
f 92/8/3 89/5/3 91/7/3
f 93/7/4 94/8/4 95/5/4
f 96/6/4 93/7/4 95/5/4
f 97/1/1 98/2/1 99/3/1
f 100/4/1 97/1/1 99/3/1
f 101/5/2 102/6/2 103/7/2
f 104/8/2 101/5/2 103/7/2
f 105/6/6 106/7/6 107/8/6
f 108/5/6 105/6/6 107/8/6
f 109/5/3 110/6/3 111/7/3
f 112/8/3 109/5/3 111/7/3
f 113/7/4 114/8/4 115/5/4
f 116/6/4 113/7/4 115/5/4
f 117/5/2 118/6/2 119/7/2
f 120/8/2 117/5/2 119/7/2
f 121/6/6 122/7/6 123/8/6
f 124/5/6 121/6/6 123/8/6
f 125/5/3 126/6/3 127/7/3
f 128/8/3 125/5/3 127/7/3
f 129/7/4 130/8/4 131/5/4
f 132/6/4 129/7/4 131/5/4
f 133/5/2 134/6/2 135/7/2
f 136/8/2 133/5/2 135/7/2
f 137/6/6 138/7/6 139/8/6
f 140/5/6 137/6/6 139/8/6
f 141/5/3 142/6/3 143/7/3
f 144/8/3 141/5/3 143/7/3
f 145/7/4 146/8/4 147/5/4
f 148/6/4 145/7/4 147/5/4
f 149/8/5 150/5/5 151/6/5
f 152/7/5 149/8/5 151/6/5
f 153/5/2 154/6/2 155/7/2
f 156/8/2 153/5/2 155/7/2
f 157/6/6 158/7/6 159/8/6
f 160/5/6 157/6/6 159/8/6
f 161/5/3 162/6/3 163/7/3
f 164/8/3 161/5/3 163/7/3
f 165/7/4 166/8/4 167/5/4
f 168/6/4 165/7/4 167/5/4
o node_2
v -2.500000 -1.500000 -1.500000
v -2.500000 -1.500000 -2.500000
v -1.500000 -1.500000 -2.500000
v -1.500000 -1.500000 -1.500000
v -1.500000 -0.500000 -1.500000
v -1.500000 -0.500000 -2.500000
v -2.500000 -0.500000 -2.500000
v -2.500000 -0.500000 -1.500000
v -2.500000 -0.500000 -2.500000
v -1.500000 -0.500000 -2.500000
v -1.500000 -1.500000 -2.500000
v -2.500000 -1.500000 -2.500000
v -2.500000 -0.500000 -1.500000
v -2.500000 -1.500000 -1.500000
v -1.500000 -1.500000 -1.500000
v -1.500000 -0.500000 -1.500000
v -2.500000 -0.500000 -1.500000
v -2.500000 -0.500000 -2.500000
v -2.500000 -1.500000 -2.500000
v -2.500000 -1.500000 -1.500000
v -1.500000 -1.500000 -1.500000
v -1.500000 -1.500000 -2.500000
v -1.500000 -0.500000 -2.500000
v -1.500000 -0.500000 -1.500000
v -0.500000 -2.500000 -1.500000
v -0.500000 -2.500000 -2.500000
v 0.500000 -2.500000 -2.500000
v 0.500000 -2.500000 -1.500000
v -0.500000 -1.500000 -2.500000
v 0.500000 -1.500000 -2.500000
v 0.500000 -2.500000 -2.500000
v -0.500000 -2.500000 -2.500000
v -0.500000 -1.500000 -1.500000
v -0.500000 -2.500000 -1.500000
v 0.500000 -2.500000 -1.500000
v 0.500000 -1.500000 -1.500000
v -0.500000 -1.500000 -1.500000
v -0.500000 -1.500000 -2.500000
v -0.500000 -2.500000 -2.500000
v -0.500000 -2.500000 -1.500000
v 0.500000 -2.500000 -1.500000
v 0.500000 -2.500000 -2.500000
v 0.500000 -1.500000 -2.500000
v 0.500000 -1.500000 -1.500000
v -0.500000 -0.500000 -2.500000
v 0.500000 -0.500000 -2.500000
v 0.500000 -1.500000 -2.500000
v -0.500000 -1.500000 -2.500000
v -0.500000 -0.500000 -1.500000
v -0.500000 -1.500000 -1.500000
v 0.500000 -1.500000 -1.500000
v 0.500000 -0.500000 -1.500000
v -0.500000 -0.500000 -1.500000
v -0.500000 -0.500000 -2.500000
v -0.500000 -1.500000 -2.500000
v -0.500000 -1.500000 -1.500000
v 0.500000 -1.500000 -1.500000
v 0.500000 -1.500000 -2.500000
v 0.500000 -0.500000 -2.500000
v 0.500000 -0.500000 -1.500000
v -0.500000 0.500000 -2.500000
v 0.500000 0.500000 -2.500000
v 0.500000 -0.500000 -2.500000
v -0.500000 -0.500000 -2.500000
v -0.500000 0.500000 -1.500000
v -0.500000 -0.500000 -1.500000
v 0.500000 -0.500000 -1.500000
v 0.500000 0.500000 -1.500000
v -0.500000 0.500000 -1.500000
v -0.500000 0.500000 -2.500000
v -0.500000 -0.500000 -2.500000
v -0.500000 -0.500000 -1.500000
v 0.500000 -0.500000 -1.500000
v 0.500000 -0.500000 -2.500000
v 0.500000 0.500000 -2.500000
v 0.500000 0.500000 -1.500000
v 0.500000 1.500000 -1.500000
v 0.500000 1.500000 -2.500000
v -0.500000 1.500000 -2.500000
v -0.500000 1.500000 -1.500000
v -0.500000 1.500000 -2.500000
v 0.500000 1.500000 -2.500000
v 0.500000 0.500000 -2.500000
v -0.500000 0.500000 -2.500000
v -0.500000 1.500000 -1.500000
v -0.500000 0.500000 -1.500000
v 0.500000 0.500000 -1.500000
v 0.500000 1.500000 -1.500000
v -0.500000 1.500000 -1.500000
v -0.500000 1.500000 -2.500000
v -0.500000 0.500000 -2.500000
v -0.500000 0.500000 -1.500000
v 0.500000 0.500000 -1.500000
v 0.500000 0.500000 -2.500000
v 0.500000 1.500000 -2.500000
v 0.500000 1.500000 -1.500000
vn -0.0000 -1.0000 -0.0000
vn -0.0000 1.0000 -0.0000
vn -0.0000 -0.0000 -1.0000
vn -0.0000 -0.0000 1.0000
vn -1.0000 -0.0000 -0.0000
vn 1.0000 -0.0000 -0.0000
vt 0.457031 0.523438
vt 0.457031 0.507812
vt 0.464844 0.507812
vt 0.464844 0.523438
vt 0.464824 0.507852
vt 0.464824 0.523398
vt 0.457051 0.523398
vt 0.457051 0.507852
vt 0.394531 0.960938
vt 0.394531 0.945312
vt 0.402344 0.945312
vt 0.402344 0.960938
vt 0.402324 0.960898
vt 0.394551 0.960898
vt 0.394551 0.945352
vt 0.402324 0.945352
s 0
usemtl terrain_atlas.terrain.013
f 169/9/7 170/10/7 171/11/7
f 172/12/7 169/9/7 171/11/7
f 173/13/8 174/14/8 175/15/8
f 176/16/8 173/13/8 175/15/8
f 177/14/9 178/15/9 179/16/9
f 180/13/9 177/14/9 179/16/9
f 181/15/10 182/16/10 183/13/10
f 184/14/10 181/15/10 183/13/10
f 185/14/11 186/15/11 187/16/11
f 188/13/11 185/14/11 187/16/11
f 189/16/12 190/13/12 191/14/12
f 192/15/12 189/16/12 191/14/12
f 193/17/7 194/18/7 195/19/7
f 196/20/7 193/17/7 195/19/7
f 197/21/9 198/22/9 199/23/9
f 200/24/9 197/21/9 199/23/9
f 201/22/10 202/23/10 203/24/10
f 204/21/10 201/22/10 203/24/10
f 205/21/11 206/22/11 207/23/11
f 208/24/11 205/21/11 207/23/11
f 209/23/12 210/24/12 211/21/12
f 212/22/12 209/23/12 211/21/12
f 213/21/9 214/22/9 215/23/9
f 216/24/9 213/21/9 215/23/9
f 217/22/10 218/23/10 219/24/10
f 220/21/10 217/22/10 219/24/10
f 221/21/11 222/22/11 223/23/11
f 224/24/11 221/21/11 223/23/11
f 225/23/12 226/24/12 227/21/12
f 228/22/12 225/23/12 227/21/12
f 229/21/9 230/22/9 231/23/9
f 232/24/9 229/21/9 231/23/9
f 233/22/10 234/23/10 235/24/10
f 236/21/10 233/22/10 235/24/10
f 237/21/11 238/22/11 239/23/11
f 240/24/11 237/21/11 239/23/11
f 241/23/12 242/24/12 243/21/12
f 244/22/12 241/23/12 243/21/12
f 245/24/8 246/21/8 247/22/8
f 248/23/8 245/24/8 247/22/8
f 249/21/9 250/22/9 251/23/9
f 252/24/9 249/21/9 251/23/9
f 253/22/10 254/23/10 255/24/10
f 256/21/10 253/22/10 255/24/10
f 257/21/11 258/22/11 259/23/11
f 260/24/11 257/21/11 259/23/11
f 261/23/12 262/24/12 263/21/12
f 264/22/12 261/23/12 263/21/12
