# Blender 3.6.1
# www.blender.org
mtllib 2_nether.mtl
o node_1
v -0.500000 -2.500000 -0.500000
v -0.500000 -2.500000 -1.500000
v 0.500000 -2.500000 -1.500000
v 0.500000 -2.500000 -0.500000
v 0.500000 -1.500000 -0.500000
v 0.500000 -1.500000 -1.500000
v -0.500000 -1.500000 -1.500000
v -0.500000 -1.500000 -0.500000
v -0.500000 -1.500000 -1.500000
v 0.500000 -1.500000 -1.500000
v 0.500000 -2.500000 -1.500000
v -0.500000 -2.500000 -1.500000
v -0.500000 -1.500000 -0.500000
v -0.500000 -1.500000 -1.500000
v -0.500000 -2.500000 -1.500000
v -0.500000 -2.500000 -0.500000
v 0.500000 -2.500000 -0.500000
v 0.500000 -2.500000 -1.500000
v 0.500000 -1.500000 -1.500000
v 0.500000 -1.500000 -0.500000
v -0.500000 -0.500000 -0.500000
v -0.500000 -0.500000 -1.500000
v 0.500000 -0.500000 -1.500000
v 0.500000 -0.500000 -0.500000
v -0.500000 0.500000 -1.500000
v 0.500000 0.500000 -1.500000
v 0.500000 -0.500000 -1.500000
v -0.500000 -0.500000 -1.500000
v -0.500000 0.500000 -0.500000
v -0.500000 -0.500000 -0.500000
v 0.500000 -0.500000 -0.500000
v 0.500000 0.500000 -0.500000
v -0.500000 0.500000 -0.500000
v -0.500000 0.500000 -1.500000
v -0.500000 -0.500000 -1.500000
v -0.500000 -0.500000 -0.500000
v 0.500000 -0.500000 -0.500000
v 0.500000 -0.500000 -1.500000
v 0.500000 0.500000 -1.500000
v 0.500000 0.500000 -0.500000
v 0.500000 1.500000 -0.500000
v 0.500000 1.500000 -1.500000
v -0.500000 1.500000 -1.500000
v -0.500000 1.500000 -0.500000
v -0.500000 1.500000 -1.500000
v 0.500000 1.500000 -1.500000
v 0.500000 0.500000 -1.500000
v -0.500000 0.500000 -1.500000
v -0.500000 1.500000 -0.500000
v -0.500000 1.500000 -1.500000
v -0.500000 0.500000 -1.500000
v -0.500000 0.500000 -0.500000
v 0.500000 0.500000 -0.500000
v 0.500000 0.500000 -1.500000
v 0.500000 1.500000 -1.500000
v 0.500000 1.500000 -0.500000
v -0.500000 -2.500000 0.500000
v -0.500000 -2.500000 -0.500000
v 0.500000 -2.500000 -0.500000
v 0.500000 -2.500000 0.500000
v -0.500000 -1.500000 0.500000
v -0.500000 -1.500000 -0.500000
v -0.500000 -2.500000 -0.500000
v -0.500000 -2.500000 0.500000
v 0.500000 -2.500000 0.500000
v 0.500000 -2.500000 -0.500000
v 0.500000 -1.500000 -0.500000
v 0.500000 -1.500000 0.500000
v 0.500000 -0.500000 0.500000
v 0.500000 -0.500000 -0.500000
v -0.500000 -0.500000 -0.500000
v -0.500000 -0.500000 0.500000
v -0.500000 -0.500000 -0.500000
v 0.500000 -0.500000 -0.500000
v 0.500000 -1.500000 -0.500000
v -0.500000 -1.500000 -0.500000
v -0.500000 -0.500000 0.500000
v -0.500000 -0.500000 -0.500000
v -0.500000 -1.500000 -0.500000
v -0.500000 -1.500000 0.500000
v 0.500000 -1.500000 0.500000
v 0.500000 -1.500000 -0.500000
v 0.500000 -0.500000 -0.500000
v 0.500000 -0.500000 0.500000
v -0.500000 0.500000 0.500000
v -0.500000 0.500000 -0.500000
v 0.500000 0.500000 -0.500000
v 0.500000 0.500000 0.500000
v 0.500000 1.500000 0.500000
v 0.500000 1.500000 -0.500000
v -0.500000 1.500000 -0.500000
v -0.500000 1.500000 0.500000
v -0.500000 1.500000 0.500000
v -0.500000 1.500000 -0.500000
v -0.500000 0.500000 -0.500000
v -0.500000 0.500000 0.500000
v 0.500000 0.500000 0.500000
v 0.500000 0.500000 -0.500000
v 0.500000 1.500000 -0.500000
v 0.500000 1.500000 0.500000
v -0.500000 -2.500000 1.500000
v -0.500000 -2.500000 0.500000
v 0.500000 -2.500000 0.500000
v 0.500000 -2.500000 1.500000
v -0.500000 -1.500000 1.500000
v -0.500000 -2.500000 1.500000
v 0.500000 -2.500000 1.500000
v 0.500000 -1.500000 1.500000
v -0.500000 -1.500000 1.500000
v -0.500000 -1.500000 0.500000
v -0.500000 -2.500000 0.500000
v -0.500000 -2.500000 1.500000
v 0.500000 -2.500000 1.500000
v 0.500000 -2.500000 0.500000
v 0.500000 -1.500000 0.500000
v 0.500000 -1.500000 1.500000
v 0.500000 -0.500000 1.500000
v 0.500000 -0.500000 0.500000
v -0.500000 -0.500000 0.500000
v -0.500000 -0.500000 1.500000
v -0.500000 -0.500000 1.500000
v -0.500000 -1.500000 1.500000
v 0.500000 -1.500000 1.500000
v 0.500000 -0.500000 1.500000
v -0.500000 -0.500000 1.500000
v -0.500000 -0.500000 0.500000
v -0.500000 -1.500000 0.500000
v -0.500000 -1.500000 1.500000
v 0.500000 -1.500000 1.500000
v 0.500000 -1.500000 0.500000
v 0.500000 -0.500000 0.500000
v 0.500000 -0.500000 1.500000
v -0.500000 0.500000 1.500000
v -0.500000 0.500000 0.500000
v 0.500000 0.500000 0.500000
v 0.500000 0.500000 1.500000
v 0.500000 1.500000 1.500000
v 0.500000 1.500000 0.500000
v -0.500000 1.500000 0.500000
v -0.500000 1.500000 1.500000
v -0.500000 1.500000 1.500000
v -0.500000 0.500000 1.500000
v 0.500000 0.500000 1.500000
v 0.500000 1.500000 1.500000
v -0.500000 1.500000 1.500000
v -0.500000 1.500000 0.500000
v -0.500000 0.500000 0.500000
v -0.500000 0.500000 1.500000
v 0.500000 0.500000 1.500000
v 0.500000 0.500000 0.500000
v 0.500000 1.500000 0.500000
v 0.500000 1.500000 1.500000
vn -0.0000 -1.0000 -0.0000
vn -0.0000 1.0000 -0.0000
vn -0.0000 -0.0000 -1.0000
vn -1.0000 -0.0000 -0.0000
vn 1.0000 -0.0000 -0.0000
vn -0.0000 -0.0000 1.0000
vt 0.394531 0.960938
vt 0.394531 0.945312
vt 0.402344 0.945312
vt 0.402344 0.960938
vt 0.402324 0.945352
vt 0.402324 0.960898
vt 0.394551 0.960898
vt 0.394551 0.945352
s 0
usemtl terrain_atlas.terrain.002
f 1/1/1 2/2/1 3/3/1
f 4/4/1 1/1/1 3/3/1
f 5/5/2 6/6/2 7/7/2
f 8/8/2 5/5/2 7/7/2
f 9/6/3 10/7/3 11/8/3
f 12/5/3 9/6/3 11/8/3
f 13/6/4 14/7/4 15/8/4
f 16/5/4 13/6/4 15/8/4
f 17/8/5 18/5/5 19/6/5
f 20/7/5 17/8/5 19/6/5
f 21/1/1 22/2/1 23/3/1
f 24/4/1 21/1/1 23/3/1
f 25/6/3 26/7/3 27/8/3
f 28/5/3 25/6/3 27/8/3
f 29/7/6 30/8/6 31/5/6
f 32/6/6 29/7/6 31/5/6
f 33/6/4 34/7/4 35/8/4
f 36/5/4 33/6/4 35/8/4
f 37/8/5 38/5/5 39/6/5
f 40/7/5 37/8/5 39/6/5
f 41/5/2 42/6/2 43/7/2
f 44/8/2 41/5/2 43/7/2
f 45/6/3 46/7/3 47/8/3
f 48/5/3 45/6/3 47/8/3
f 49/6/4 50/7/4 51/8/4
f 52/5/4 49/6/4 51/8/4
f 53/8/5 54/5/5 55/6/5
f 56/7/5 53/8/5 55/6/5
f 57/1/1 58/2/1 59/3/1
f 60/4/1 57/1/1 59/3/1
f 61/6/4 62/7/4 63/8/4
f 64/5/4 61/6/4 63/8/4
f 65/8/5 66/5/5 67/6/5
f 68/7/5 65/8/5 67/6/5
f 69/5/2 70/6/2 71/7/2
f 72/8/2 69/5/2 71/7/2
f 73/6/3 74/7/3 75/8/3
f 76/5/3 73/6/3 75/8/3
f 77/6/4 78/7/4 79/8/4
f 80/5/4 77/6/4 79/8/4
f 81/8/5 82/5/5 83/6/5
f 84/7/5 81/8/5 83/6/5
f 85/1/1 86/2/1 87/3/1
f 88/4/1 85/1/1 87/3/1
f 89/5/2 90/6/2 91/7/2
f 92/8/2 89/5/2 91/7/2
f 93/6/4 94/7/4 95/8/4
f 96/5/4 93/6/4 95/8/4
f 97/8/5 98/5/5 99/6/5
f 100/7/5 97/8/5 99/6/5
f 101/1/1 102/2/1 103/3/1
f 104/4/1 101/1/1 103/3/1
f 105/7/6 106/8/6 107/5/6
f 108/6/6 105/7/6 107/5/6
f 109/6/4 110/7/4 111/8/4
f 112/5/4 109/6/4 111/8/4
f 113/8/5 114/5/5 115/6/5
f 116/7/5 113/8/5 115/6/5
f 117/5/2 118/6/2 119/7/2
f 120/8/2 117/5/2 119/7/2
f 121/7/6 122/8/6 123/5/6
f 124/6/6 121/7/6 123/5/6
f 125/6/4 126/7/4 127/8/4
f 128/5/4 125/6/4 127/8/4
f 129/8/5 130/5/5 131/6/5
f 132/7/5 129/8/5 131/6/5
f 133/1/1 134/2/1 135/3/1
f 136/4/1 133/1/1 135/3/1
f 137/5/2 138/6/2 139/7/2
f 140/8/2 137/5/2 139/7/2
f 141/7/6 142/8/6 143/5/6
f 144/6/6 141/7/6 143/5/6
f 145/6/4 146/7/4 147/8/4
f 148/5/4 145/6/4 147/8/4
f 149/8/5 150/5/5 151/6/5
f 152/7/5 149/8/5 151/6/5
o node_2
v -2.500000 -1.500000 -1.500000
v -2.500000 -1.500000 -2.500000
v -1.500000 -1.500000 -2.500000
v -1.500000 -1.500000 -1.500000
v -1.500000 -0.500000 -1.500000
v -1.500000 -0.500000 -2.500000
v -2.500000 -0.500000 -2.500000
v -2.500000 -0.500000 -1.500000
v -2.500000 -0.500000 -2.500000
v -1.500000 -0.500000 -2.500000
v -1.500000 -1.500000 -2.500000
v -2.500000 -1.500000 -2.500000
v -2.500000 -0.500000 -1.500000
v -2.500000 -1.500000 -1.500000
v -1.500000 -1.500000 -1.500000
v -1.500000 -0.500000 -1.500000
v -2.500000 -0.500000 -1.500000
v -2.500000 -0.500000 -2.500000
v -2.500000 -1.500000 -2.500000
v -2.500000 -1.500000 -1.500000
v -1.500000 -1.500000 -1.500000
v -1.500000 -1.500000 -2.500000
v -1.500000 -0.500000 -2.500000
v -1.500000 -0.500000 -1.500000
vn -0.0000 -1.0000 -0.0000
vn -0.0000 1.0000 -0.0000
vn -0.0000 -0.0000 -1.0000
vn -0.0000 -0.0000 1.0000
vn -1.0000 -0.0000 -0.0000
vn 1.0000 -0.0000 -0.0000
vt 0.457031 0.523438
vt 0.457031 0.507812
vt 0.464844 0.507812
vt 0.464844 0.523438
vt 0.464824 0.507852
vt 0.464824 0.523398
vt 0.457051 0.523398
vt 0.457051 0.507852
s 0
usemtl terrain_atlas.terrain.002
f 153/9/7 154/10/7 155/11/7
f 156/12/7 153/9/7 155/11/7
f 157/13/8 158/14/8 159/15/8
f 160/16/8 157/13/8 159/15/8
f 161/14/9 162/15/9 163/16/9
f 164/13/9 161/14/9 163/16/9
f 165/15/10 166/16/10 167/13/10
f 168/14/10 165/15/10 167/13/10
f 169/14/11 170/15/11 171/16/11
f 172/13/11 169/14/11 171/16/11
f 173/16/12 174/13/12 175/14/12
f 176/15/12 173/16/12 175/14/12
