# Blender 3.6.1
# www.blender.org
mtllib 5_stronghold.mtl
o node_1
v -0.500000 -2.500000 -0.500000
v -0.500000 -2.500000 -1.500000
v 0.500000 -2.500000 -1.500000
v 0.500000 -2.500000 -0.500000
v -0.500000 -1.500000 -1.500000
v 0.500000 -1.500000 -1.500000
v 0.500000 -2.500000 -1.500000
v -0.500000 -2.500000 -1.500000
v -0.500000 -1.500000 -0.500000
v -0.500000 -1.500000 -1.500000
v -0.500000 -2.500000 -1.500000
v -0.500000 -2.500000 -0.500000
v 0.500000 -2.500000 -0.500000
v 0.500000 -2.500000 -1.500000
v 0.500000 -1.500000 -1.500000
v 0.500000 -1.500000 -0.500000
v 0.500000 -0.500000 -0.500000
v 0.500000 -0.500000 -1.500000
v -0.500000 -0.500000 -1.500000
v -0.500000 -0.500000 -0.500000
v -0.500000 -0.500000 -1.500000
v 0.500000 -0.500000 -1.500000
v 0.500000 -1.500000 -1.500000
v -0.500000 -1.500000 -1.500000
v -0.500000 -0.500000 -0.500000
v -0.500000 -0.500000 -1.500000
v -0.500000 -1.500000 -1.500000
v -0.500000 -1.500000 -0.500000
v 0.500000 -1.500000 -0.500000
v 0.500000 -1.500000 -1.500000
v 0.500000 -0.500000 -1.500000
v 0.500000 -0.500000 -0.500000
v -0.500000 0.500000 -0.500000
v -0.500000 0.500000 -1.500000
v 0.500000 0.500000 -1.500000
v 0.500000 0.500000 -0.500000
v 0.500000 1.500000 -0.500000
v 0.500000 1.500000 -1.500000
v -0.500000 1.500000 -1.500000
v -0.500000 1.500000 -0.500000
v -0.500000 1.500000 -1.500000
v 0.500000 1.500000 -1.500000
v 0.500000 0.500000 -1.500000
v -0.500000 0.500000 -1.500000
v -0.500000 1.500000 -0.500000
v -0.500000 1.500000 -1.500000
v -0.500000 0.500000 -1.500000
v -0.500000 0.500000 -0.500000
v 0.500000 0.500000 -0.500000
v 0.500000 0.500000 -1.500000
v 0.500000 1.500000 -1.500000
v 0.500000 1.500000 -0.500000
v -0.500000 -2.500000 0.500000
v -0.500000 -2.500000 -0.500000
v 0.500000 -2.500000 -0.500000
v 0.500000 -2.500000 0.500000
v -0.500000 -1.500000 0.500000
v -0.500000 -1.500000 -0.500000
v -0.500000 -2.500000 -0.500000
v -0.500000 -2.500000 0.500000
v 0.500000 -2.500000 0.500000
v 0.500000 -2.500000 -0.500000
v 0.500000 -1.500000 -0.500000
v 0.500000 -1.500000 0.500000
v -0.500000 -0.500000 0.500000
v -0.500000 -1.500000 0.500000
v 0.500000 -1.500000 0.500000
v 0.500000 -0.500000 0.500000
v -0.500000 -0.500000 0.500000
v -0.500000 -0.500000 -0.500000
v -0.500000 -1.500000 -0.500000
v -0.500000 -1.500000 0.500000
v 0.500000 -1.500000 0.500000
v 0.500000 -1.500000 -0.500000
v 0.500000 -0.500000 -0.500000
v 0.500000 -0.500000 0.500000
v -0.500000 0.500000 -0.500000
v 0.500000 0.500000 -0.500000
v 0.500000 -0.500000 -0.500000
v -0.500000 -0.500000 -0.500000
v -0.500000 0.500000 0.500000
v -0.500000 0.500000 -0.500000
v -0.500000 -0.500000 -0.500000
v -0.500000 -0.500000 0.500000
v 0.500000 -0.500000 0.500000
v 0.500000 -0.500000 -0.500000
v 0.500000 0.500000 -0.500000
v 0.500000 0.500000 0.500000
v 0.500000 1.500000 0.500000
v 0.500000 1.500000 -0.500000
v -0.500000 1.500000 -0.500000
v -0.500000 1.500000 0.500000
v -0.500000 1.500000 0.500000
v -0.500000 1.500000 -0.500000
v -0.500000 0.500000 -0.500000
v -0.500000 0.500000 0.500000
v 0.500000 0.500000 0.500000
v 0.500000 0.500000 -0.500000
v 0.500000 1.500000 -0.500000
v 0.500000 1.500000 0.500000
v -0.500000 -2.500000 1.500000
v -0.500000 -2.500000 0.500000
v 0.500000 -2.500000 0.500000
v 0.500000 -2.500000 1.500000
v 0.500000 -1.500000 1.500000
v 0.500000 -1.500000 0.500000
v -0.500000 -1.500000 0.500000
v -0.500000 -1.500000 1.500000
v -0.500000 -1.500000 1.500000
v -0.500000 -2.500000 1.500000
v 0.500000 -2.500000 1.500000
v 0.500000 -1.500000 1.500000
v -0.500000 -1.500000 1.500000
v -0.500000 -1.500000 0.500000
v -0.500000 -2.500000 0.500000
v -0.500000 -2.500000 1.500000
v 0.500000 -2.500000 1.500000
v 0.500000 -2.500000 0.500000
v 0.500000 -1.500000 0.500000
v 0.500000 -1.500000 1.500000
v -0.500000 -0.500000 1.500000
v -0.500000 -0.500000 0.500000
v 0.500000 -0.500000 0.500000
v 0.500000 -0.500000 1.500000
v -0.500000 0.500000 1.500000
v -0.500000 -0.500000 1.500000
v 0.500000 -0.500000 1.500000
v 0.500000 0.500000 1.500000
v -0.500000 0.500000 1.500000
v -0.500000 0.500000 0.500000
v -0.500000 -0.500000 0.500000
v -0.500000 -0.500000 1.500000
v 0.500000 -0.500000 1.500000
v 0.500000 -0.500000 0.500000
v 0.500000 0.500000 0.500000
v 0.500000 0.500000 1.500000
v 0.500000 1.500000 1.500000
v 0.500000 1.500000 0.500000
v -0.500000 1.500000 0.500000
v -0.500000 1.500000 1.500000
v -0.500000 1.500000 1.500000
v -0.500000 0.500000 1.500000
v 0.500000 0.500000 1.500000
v 0.500000 1.500000 1.500000
v -0.500000 1.500000 1.500000
v -0.500000 1.500000 0.500000
v -0.500000 0.500000 0.500000
v -0.500000 0.500000 1.500000
v 0.500000 0.500000 1.500000
v 0.500000 0.500000 0.500000
v 0.500000 1.500000 0.500000
v 0.500000 1.500000 1.500000
vn -0.0000 -1.0000 -0.0000
vn -0.0000 -0.0000 -1.0000
vn -1.0000 -0.0000 -0.0000
vn 1.0000 -0.0000 -0.0000
vn -0.0000 1.0000 -0.0000
vn -0.0000 -0.0000 1.0000
vt 0.394531 0.960938
vt 0.394531 0.945312
vt 0.402344 0.945312
vt 0.402344 0.960938
vt 0.402324 0.960898
vt 0.394551 0.960898
vt 0.394551 0.945352
vt 0.402324 0.945352
s 0
usemtl terrain_atlas.terrain.005
f 1/1/1 2/2/1 3/3/1
f 4/4/1 1/1/1 3/3/1
f 5/5/2 6/6/2 7/7/2
f 8/8/2 5/5/2 7/7/2
f 9/5/3 10/6/3 11/7/3
f 12/8/3 9/5/3 11/7/3
f 13/7/4 14/8/4 15/5/4
f 16/6/4 13/7/4 15/5/4
f 17/8/5 18/5/5 19/6/5
f 20/7/5 17/8/5 19/6/5
f 21/5/2 22/6/2 23/7/2
f 24/8/2 21/5/2 23/7/2
f 25/5/3 26/6/3 27/7/3
f 28/8/3 25/5/3 27/7/3
f 29/7/4 30/8/4 31/5/4
f 32/6/4 29/7/4 31/5/4
f 33/1/1 34/2/1 35/3/1
f 36/4/1 33/1/1 35/3/1
f 37/8/5 38/5/5 39/6/5
f 40/7/5 37/8/5 39/6/5
f 41/5/2 42/6/2 43/7/2
f 44/8/2 41/5/2 43/7/2
f 45/5/3 46/6/3 47/7/3
f 48/8/3 45/5/3 47/7/3
f 49/7/4 50/8/4 51/5/4
f 52/6/4 49/7/4 51/5/4
f 53/1/1 54/2/1 55/3/1
f 56/4/1 53/1/1 55/3/1
f 57/5/3 58/6/3 59/7/3
f 60/8/3 57/5/3 59/7/3
f 61/7/4 62/8/4 63/5/4
f 64/6/4 61/7/4 63/5/4
f 65/6/6 66/7/6 67/8/6
f 68/5/6 65/6/6 67/8/6
f 69/5/3 70/6/3 71/7/3
f 72/8/3 69/5/3 71/7/3
f 73/7/4 74/8/4 75/5/4
f 76/6/4 73/7/4 75/5/4
f 77/5/2 78/6/2 79/7/2
f 80/8/2 77/5/2 79/7/2
f 81/5/3 82/6/3 83/7/3
f 84/8/3 81/5/3 83/7/3
f 85/7/4 86/8/4 87/5/4
f 88/6/4 85/7/4 87/5/4
f 89/8/5 90/5/5 91/6/5
f 92/7/5 89/8/5 91/6/5
f 93/5/3 94/6/3 95/7/3
f 96/8/3 93/5/3 95/7/3
f 97/7/4 98/8/4 99/5/4
f 100/6/4 97/7/4 99/5/4
f 101/1/1 102/2/1 103/3/1
f 104/4/1 101/1/1 103/3/1
f 105/8/5 106/5/5 107/6/5
f 108/7/5 105/8/5 107/6/5
f 109/6/6 110/7/6 111/8/6
f 112/5/6 109/6/6 111/8/6
f 113/5/3 114/6/3 115/7/3
f 116/8/3 113/5/3 115/7/3
f 117/7/4 118/8/4 119/5/4
f 120/6/4 117/7/4 119/5/4
f 121/1/1 122/2/1 123/3/1
f 124/4/1 121/1/1 123/3/1
f 125/6/6 126/7/6 127/8/6
f 128/5/6 125/6/6 127/8/6
f 129/5/3 130/6/3 131/7/3
f 132/8/3 129/5/3 131/7/3
f 133/7/4 134/8/4 135/5/4
f 136/6/4 133/7/4 135/5/4
f 137/8/5 138/5/5 139/6/5
f 140/7/5 137/8/5 139/6/5
f 141/6/6 142/7/6 143/8/6
f 144/5/6 141/6/6 143/8/6
f 145/5/3 146/6/3 147/7/3
f 148/8/3 145/5/3 147/7/3
f 149/7/4 150/8/4 151/5/4
f 152/6/4 149/7/4 151/5/4
o node_2
v -2.500000 -1.500000 -1.500000
v -2.500000 -1.500000 -2.500000
v -1.500000 -1.500000 -2.500000
v -1.500000 -1.500000 -1.500000
v -1.500000 -0.500000 -1.500000
v -1.500000 -0.500000 -2.500000
v -2.500000 -0.500000 -2.500000
v -2.500000 -0.500000 -1.500000
v -2.500000 -0.500000 -2.500000
v -1.500000 -0.500000 -2.500000
v -1.500000 -1.500000 -2.500000
v -2.500000 -1.500000 -2.500000
v -2.500000 -0.500000 -1.500000
v -2.500000 -1.500000 -1.500000
v -1.500000 -1.500000 -1.500000
v -1.500000 -0.500000 -1.500000
v -2.500000 -0.500000 -1.500000
v -2.500000 -0.500000 -2.500000
v -2.500000 -1.500000 -2.500000
v -2.500000 -1.500000 -1.500000
v -1.500000 -1.500000 -1.500000
v -1.500000 -1.500000 -2.500000
v -1.500000 -0.500000 -2.500000
v -1.500000 -0.500000 -1.500000
vn -0.0000 -1.0000 -0.0000
vn -0.0000 1.0000 -0.0000
vn -0.0000 -0.0000 -1.0000
vn -0.0000 -0.0000 1.0000
vn -1.0000 -0.0000 -0.0000
vn 1.0000 -0.0000 -0.0000
vt 0.457031 0.523438
vt 0.457031 0.507812
vt 0.464844 0.507812
vt 0.464844 0.523438
vt 0.464824 0.507852
vt 0.464824 0.523398
vt 0.457051 0.523398
vt 0.457051 0.507852
s 0
usemtl terrain_atlas.terrain.005
f 153/9/7 154/10/7 155/11/7
f 156/12/7 153/9/7 155/11/7
f 157/13/8 158/14/8 159/15/8
f 160/16/8 157/13/8 159/15/8
f 161/14/9 162/15/9 163/16/9
f 164/13/9 161/14/9 163/16/9
f 165/15/10 166/16/10 167/13/10
f 168/14/10 165/15/10 167/13/10
f 169/14/11 170/15/11 171/16/11
f 172/13/11 169/14/11 171/16/11
f 173/16/12 174/13/12 175/14/12
f 176/15/12 173/16/12 175/14/12
