# Blender 3.6.1
# www.blender.org
mtllib 8_neonether.mtl
o node_1
v -0.500000 -2.500000 -0.500000
v -0.500000 -2.500000 -1.500000
v 0.500000 -2.500000 -1.500000
v 0.500000 -2.500000 -0.500000
v -0.500000 -1.500000 -1.500000
v 0.500000 -1.500000 -1.500000
v 0.500000 -2.500000 -1.500000
v -0.500000 -2.500000 -1.500000
v -0.500000 -1.500000 -0.500000
v -0.500000 -1.500000 -1.500000
v -0.500000 -2.500000 -1.500000
v -0.500000 -2.500000 -0.500000
v 0.500000 -2.500000 -0.500000
v 0.500000 -2.500000 -1.500000
v 0.500000 -1.500000 -1.500000
v 0.500000 -1.500000 -0.500000
v -0.500000 -0.500000 -1.500000
v 0.500000 -0.500000 -1.500000
v 0.500000 -1.500000 -1.500000
v -0.500000 -1.500000 -1.500000
v -0.500000 -0.500000 -0.500000
v -0.500000 -0.500000 -1.500000
v -0.500000 -1.500000 -1.500000
v -0.500000 -1.500000 -0.500000
v 0.500000 -1.500000 -0.500000
v 0.500000 -1.500000 -1.500000
v 0.500000 -0.500000 -1.500000
v 0.500000 -0.500000 -0.500000
v -0.500000 0.500000 -1.500000
v 0.500000 0.500000 -1.500000
v 0.500000 -0.500000 -1.500000
v -0.500000 -0.500000 -1.500000
v -0.500000 0.500000 -0.500000
v -0.500000 -0.500000 -0.500000
v 0.500000 -0.500000 -0.500000
v 0.500000 0.500000 -0.500000
v -0.500000 0.500000 -0.500000
v -0.500000 0.500000 -1.500000
v -0.500000 -0.500000 -1.500000
v -0.500000 -0.500000 -0.500000
v 0.500000 -0.500000 -0.500000
v 0.500000 -0.500000 -1.500000
v 0.500000 0.500000 -1.500000
v 0.500000 0.500000 -0.500000
v 0.500000 1.500000 -0.500000
v 0.500000 1.500000 -1.500000
v -0.500000 1.500000 -1.500000
v -0.500000 1.500000 -0.500000
v -0.500000 1.500000 -1.500000
v 0.500000 1.500000 -1.500000
v 0.500000 0.500000 -1.500000
v -0.500000 0.500000 -1.500000
v -0.500000 1.500000 -0.500000
v -0.500000 1.500000 -1.500000
v -0.500000 0.500000 -1.500000
v -0.500000 0.500000 -0.500000
v 0.500000 0.500000 -0.500000
v 0.500000 0.500000 -1.500000
v 0.500000 1.500000 -1.500000
v 0.500000 1.500000 -0.500000
v -0.500000 -2.500000 0.500000
v -0.500000 -2.500000 -0.500000
v 0.500000 -2.500000 -0.500000
v 0.500000 -2.500000 0.500000
v -0.500000 -1.500000 0.500000
v -0.500000 -1.500000 -0.500000
v -0.500000 -2.500000 -0.500000
v -0.500000 -2.500000 0.500000
v 0.500000 -2.500000 0.500000
v 0.500000 -2.500000 -0.500000
v 0.500000 -1.500000 -0.500000
v 0.500000 -1.500000 0.500000
v 0.500000 -0.500000 0.500000
v 0.500000 -0.500000 -0.500000
v -0.500000 -0.500000 -0.500000
v -0.500000 -0.500000 0.500000
v -0.500000 -0.500000 0.500000
v -0.500000 -0.500000 -0.500000
v -0.500000 -1.500000 -0.500000
v -0.500000 -1.500000 0.500000
v 0.500000 -1.500000 0.500000
v 0.500000 -1.500000 -0.500000
v 0.500000 -0.500000 -0.500000
v 0.500000 -0.500000 0.500000
v -0.500000 0.500000 0.500000
v -0.500000 0.500000 -0.500000
v 0.500000 0.500000 -0.500000
v 0.500000 0.500000 0.500000
v 0.500000 1.500000 0.500000
v 0.500000 1.500000 -0.500000
v -0.500000 1.500000 -0.500000
v -0.500000 1.500000 0.500000
v -0.500000 1.500000 0.500000
v -0.500000 1.500000 -0.500000
v -0.500000 0.500000 -0.500000
v -0.500000 0.500000 0.500000
v 0.500000 0.500000 0.500000
v 0.500000 0.500000 -0.500000
v 0.500000 1.500000 -0.500000
v 0.500000 1.500000 0.500000
v -0.500000 -2.500000 1.500000
v -0.500000 -2.500000 0.500000
v 0.500000 -2.500000 0.500000
v 0.500000 -2.500000 1.500000
v -0.500000 -1.500000 1.500000
v -0.500000 -2.500000 1.500000
v 0.500000 -2.500000 1.500000
v 0.500000 -1.500000 1.500000
v -0.500000 -1.500000 1.500000
v -0.500000 -1.500000 0.500000
v -0.500000 -2.500000 0.500000
v -0.500000 -2.500000 1.500000
v 0.500000 -2.500000 1.500000
v 0.500000 -2.500000 0.500000
v 0.500000 -1.500000 0.500000
v 0.500000 -1.500000 1.500000
v -0.500000 -0.500000 1.500000
v -0.500000 -1.500000 1.500000
v 0.500000 -1.500000 1.500000
v 0.500000 -0.500000 1.500000
v -0.500000 -0.500000 1.500000
v -0.500000 -0.500000 0.500000
v -0.500000 -1.500000 0.500000
v -0.500000 -1.500000 1.500000
v 0.500000 -1.500000 1.500000
v 0.500000 -1.500000 0.500000
v 0.500000 -0.500000 0.500000
v 0.500000 -0.500000 1.500000
v -0.500000 0.500000 0.500000
v 0.500000 0.500000 0.500000
v 0.500000 -0.500000 0.500000
v -0.500000 -0.500000 0.500000
v -0.500000 0.500000 1.500000
v -0.500000 -0.500000 1.500000
v 0.500000 -0.500000 1.500000
v 0.500000 0.500000 1.500000
v -0.500000 0.500000 1.500000
v -0.500000 0.500000 0.500000
v -0.500000 -0.500000 0.500000
v -0.500000 -0.500000 1.500000
v 0.500000 -0.500000 1.500000
v 0.500000 -0.500000 0.500000
v 0.500000 0.500000 0.500000
v 0.500000 0.500000 1.500000
v 0.500000 1.500000 1.500000
v 0.500000 1.500000 0.500000
v -0.500000 1.500000 0.500000
v -0.500000 1.500000 1.500000
v -0.500000 1.500000 1.500000
v -0.500000 0.500000 1.500000
v 0.500000 0.500000 1.500000
v 0.500000 1.500000 1.500000
v -0.500000 1.500000 1.500000
v -0.500000 1.500000 0.500000
v -0.500000 0.500000 0.500000
v -0.500000 0.500000 1.500000
v 0.500000 0.500000 1.500000
v 0.500000 0.500000 0.500000
v 0.500000 1.500000 0.500000
v 0.500000 1.500000 1.500000
vn -0.0000 -1.0000 -0.0000
vn -0.0000 -0.0000 -1.0000
vn -1.0000 -0.0000 -0.0000
vn 1.0000 -0.0000 -0.0000
vn -0.0000 -0.0000 1.0000
vn -0.0000 1.0000 -0.0000
vt 0.394531 0.960938
vt 0.394531 0.945312
vt 0.402344 0.945312
vt 0.402344 0.960938
vt 0.402324 0.960898
vt 0.394551 0.960898
vt 0.394551 0.945352
vt 0.402324 0.945352
s 0
usemtl terrain_atlas.terrain.008
f 1/1/1 2/2/1 3/3/1
f 4/4/1 1/1/1 3/3/1
f 5/5/2 6/6/2 7/7/2
f 8/8/2 5/5/2 7/7/2
f 9/5/3 10/6/3 11/7/3
f 12/8/3 9/5/3 11/7/3
f 13/7/4 14/8/4 15/5/4
f 16/6/4 13/7/4 15/5/4
f 17/5/2 18/6/2 19/7/2
f 20/8/2 17/5/2 19/7/2
f 21/5/3 22/6/3 23/7/3
f 24/8/3 21/5/3 23/7/3
f 25/7/4 26/8/4 27/5/4
f 28/6/4 25/7/4 27/5/4
f 29/5/2 30/6/2 31/7/2
f 32/8/2 29/5/2 31/7/2
f 33/6/5 34/7/5 35/8/5
f 36/5/5 33/6/5 35/8/5
f 37/5/3 38/6/3 39/7/3
f 40/8/3 37/5/3 39/7/3
f 41/7/4 42/8/4 43/5/4
f 44/6/4 41/7/4 43/5/4
f 45/8/6 46/5/6 47/6/6
f 48/7/6 45/8/6 47/6/6
f 49/5/2 50/6/2 51/7/2
f 52/8/2 49/5/2 51/7/2
f 53/5/3 54/6/3 55/7/3
f 56/8/3 53/5/3 55/7/3
f 57/7/4 58/8/4 59/5/4
f 60/6/4 57/7/4 59/5/4
f 61/1/1 62/2/1 63/3/1
f 64/4/1 61/1/1 63/3/1
f 65/5/3 66/6/3 67/7/3
f 68/8/3 65/5/3 67/7/3
f 69/7/4 70/8/4 71/5/4
f 72/6/4 69/7/4 71/5/4
f 73/8/6 74/5/6 75/6/6
f 76/7/6 73/8/6 75/6/6
f 77/5/3 78/6/3 79/7/3
f 80/8/3 77/5/3 79/7/3
f 81/7/4 82/8/4 83/5/4
f 84/6/4 81/7/4 83/5/4
f 85/1/1 86/2/1 87/3/1
f 88/4/1 85/1/1 87/3/1
f 89/8/6 90/5/6 91/6/6
f 92/7/6 89/8/6 91/6/6
f 93/5/3 94/6/3 95/7/3
f 96/8/3 93/5/3 95/7/3
f 97/7/4 98/8/4 99/5/4
f 100/6/4 97/7/4 99/5/4
f 101/1/1 102/2/1 103/3/1
f 104/4/1 101/1/1 103/3/1
f 105/6/5 106/7/5 107/8/5
f 108/5/5 105/6/5 107/8/5
f 109/5/3 110/6/3 111/7/3
f 112/8/3 109/5/3 111/7/3
f 113/7/4 114/8/4 115/5/4
f 116/6/4 113/7/4 115/5/4
f 117/6/5 118/7/5 119/8/5
f 120/5/5 117/6/5 119/8/5
f 121/5/3 122/6/3 123/7/3
f 124/8/3 121/5/3 123/7/3
f 125/7/4 126/8/4 127/5/4
f 128/6/4 125/7/4 127/5/4
f 129/5/2 130/6/2 131/7/2
f 132/8/2 129/5/2 131/7/2
f 133/6/5 134/7/5 135/8/5
f 136/5/5 133/6/5 135/8/5
f 137/5/3 138/6/3 139/7/3
f 140/8/3 137/5/3 139/7/3
f 141/7/4 142/8/4 143/5/4
f 144/6/4 141/7/4 143/5/4
f 145/8/6 146/5/6 147/6/6
f 148/7/6 145/8/6 147/6/6
f 149/6/5 150/7/5 151/8/5
f 152/5/5 149/6/5 151/8/5
f 153/5/3 154/6/3 155/7/3
f 156/8/3 153/5/3 155/7/3
f 157/7/4 158/8/4 159/5/4
f 160/6/4 157/7/4 159/5/4
o node_2
v -2.500000 -1.500000 -1.500000
v -2.500000 -1.500000 -2.500000
v -1.500000 -1.500000 -2.500000
v -1.500000 -1.500000 -1.500000
v -1.500000 -0.500000 -1.500000
v -1.500000 -0.500000 -2.500000
v -2.500000 -0.500000 -2.500000
v -2.500000 -0.500000 -1.500000
v -2.500000 -0.500000 -2.500000
v -1.500000 -0.500000 -2.500000
v -1.500000 -1.500000 -2.500000
v -2.500000 -1.500000 -2.500000
v -2.500000 -0.500000 -1.500000
v -2.500000 -1.500000 -1.500000
v -1.500000 -1.500000 -1.500000
v -1.500000 -0.500000 -1.500000
v -2.500000 -0.500000 -1.500000
v -2.500000 -0.500000 -2.500000
v -2.500000 -1.500000 -2.500000
v -2.500000 -1.500000 -1.500000
v -1.500000 -1.500000 -1.500000
v -1.500000 -1.500000 -2.500000
v -1.500000 -0.500000 -2.500000
v -1.500000 -0.500000 -1.500000
vn -0.0000 -1.0000 -0.0000
vn -0.0000 1.0000 -0.0000
vn -0.0000 -0.0000 -1.0000
vn -0.0000 -0.0000 1.0000
vn -1.0000 -0.0000 -0.0000
vn 1.0000 -0.0000 -0.0000
vt 0.457031 0.523438
vt 0.457031 0.507812
vt 0.464844 0.507812
vt 0.464844 0.523438
vt 0.464824 0.507852
vt 0.464824 0.523398
vt 0.457051 0.523398
vt 0.457051 0.507852
s 0
usemtl terrain_atlas.terrain.008
f 161/9/7 162/10/7 163/11/7
f 164/12/7 161/9/7 163/11/7
f 165/13/8 166/14/8 167/15/8
f 168/16/8 165/13/8 167/15/8
f 169/14/9 170/15/9 171/16/9
f 172/13/9 169/14/9 171/16/9
f 173/15/10 174/16/10 175/13/10
f 176/14/10 173/15/10 175/13/10
f 177/14/11 178/15/11 179/16/11
f 180/13/11 177/14/11 179/16/11
f 181/16/12 182/13/12 183/14/12
f 184/15/12 181/16/12 183/14/12
