# Blender 3.6.1
# www.blender.org
mtllib 1_blackwhite.mtl
o node_1
v -0.500000 -2.500000 -0.500000
v -0.500000 -2.500000 -1.500000
v 0.500000 -2.500000 -1.500000
v 0.500000 -2.500000 -0.500000
v 0.500000 -1.500000 -0.500000
v 0.500000 -1.500000 -1.500000
v -0.500000 -1.500000 -1.500000
v -0.500000 -1.500000 -0.500000
v -0.500000 -1.500000 -1.500000
v 0.500000 -1.500000 -1.500000
v 0.500000 -2.500000 -1.500000
v -0.500000 -2.500000 -1.500000
v -0.500000 -1.500000 -0.500000
v -0.500000 -1.500000 -1.500000
v -0.500000 -2.500000 -1.500000
v -0.500000 -2.500000 -0.500000
v 0.500000 -2.500000 -0.500000
v 0.500000 -2.500000 -1.500000
v 0.500000 -1.500000 -1.500000
v 0.500000 -1.500000 -0.500000
v -0.500000 -2.500000 0.500000
v -0.500000 -2.500000 -0.500000
v 0.500000 -2.500000 -0.500000
v 0.500000 -2.500000 0.500000
v -0.500000 -1.500000 0.500000
v -0.500000 -1.500000 -0.500000
v -0.500000 -2.500000 -0.500000
v -0.500000 -2.500000 0.500000
v 0.500000 -2.500000 0.500000
v 0.500000 -2.500000 -0.500000
v 0.500000 -1.500000 -0.500000
v 0.500000 -1.500000 0.500000
v -0.500000 -0.500000 -0.500000
v 0.500000 -0.500000 -0.500000
v 0.500000 -1.500000 -0.500000
v -0.500000 -1.500000 -0.500000
v -0.500000 -0.500000 0.500000
v -0.500000 -1.500000 0.500000
v 0.500000 -1.500000 0.500000
v 0.500000 -0.500000 0.500000
v -0.500000 -0.500000 0.500000
v -0.500000 -0.500000 -0.500000
v -0.500000 -1.500000 -0.500000
v -0.500000 -1.500000 0.500000
v 0.500000 -1.500000 0.500000
v 0.500000 -1.500000 -0.500000
v 0.500000 -0.500000 -0.500000
v 0.500000 -0.500000 0.500000
v -0.500000 0.500000 -0.500000
v 0.500000 0.500000 -0.500000
v 0.500000 -0.500000 -0.500000
v -0.500000 -0.500000 -0.500000
v -0.500000 0.500000 0.500000
v -0.500000 -0.500000 0.500000
v 0.500000 -0.500000 0.500000
v 0.500000 0.500000 0.500000
v -0.500000 0.500000 0.500000
v -0.500000 0.500000 -0.500000
v -0.500000 -0.500000 -0.500000
v -0.500000 -0.500000 0.500000
v 0.500000 -0.500000 0.500000
v 0.500000 -0.500000 -0.500000
v 0.500000 0.500000 -0.500000
v 0.500000 0.500000 0.500000
v 0.500000 1.500000 0.500000
v 0.500000 1.500000 -0.500000
v -0.500000 1.500000 -0.500000
v -0.500000 1.500000 0.500000
v -0.500000 1.500000 -0.500000
v 0.500000 1.500000 -0.500000
v 0.500000 0.500000 -0.500000
v -0.500000 0.500000 -0.500000
v -0.500000 1.500000 0.500000
v -0.500000 1.500000 -0.500000
v -0.500000 0.500000 -0.500000
v -0.500000 0.500000 0.500000
v 0.500000 0.500000 0.500000
v 0.500000 0.500000 -0.500000
v 0.500000 1.500000 -0.500000
v 0.500000 1.500000 0.500000
v -0.500000 -2.500000 1.500000
v -0.500000 -2.500000 0.500000
v 0.500000 -2.500000 0.500000
v 0.500000 -2.500000 1.500000
v 0.500000 -1.500000 1.500000
v 0.500000 -1.500000 0.500000
v -0.500000 -1.500000 0.500000
v -0.500000 -1.500000 1.500000
v -0.500000 -1.500000 1.500000
v -0.500000 -2.500000 1.500000
v 0.500000 -2.500000 1.500000
v 0.500000 -1.500000 1.500000
v -0.500000 -1.500000 1.500000
v -0.500000 -1.500000 0.500000
v -0.500000 -2.500000 0.500000
v -0.500000 -2.500000 1.500000
v 0.500000 -2.500000 1.500000
v 0.500000 -2.500000 0.500000
v 0.500000 -1.500000 0.500000
v 0.500000 -1.500000 1.500000
v -0.500000 0.500000 1.500000
v -0.500000 0.500000 0.500000
v 0.500000 0.500000 0.500000
v 0.500000 0.500000 1.500000
v 0.500000 1.500000 1.500000
v 0.500000 1.500000 0.500000
v -0.500000 1.500000 0.500000
v -0.500000 1.500000 1.500000
v -0.500000 1.500000 1.500000
v -0.500000 0.500000 1.500000
v 0.500000 0.500000 1.500000
v 0.500000 1.500000 1.500000
v -0.500000 1.500000 1.500000
v -0.500000 1.500000 0.500000
v -0.500000 0.500000 0.500000
v -0.500000 0.500000 1.500000
v 0.500000 0.500000 1.500000
v 0.500000 0.500000 0.500000
v 0.500000 1.500000 0.500000
v 0.500000 1.500000 1.500000
vn -0.0000 -1.0000 -0.0000
vn -0.0000 1.0000 -0.0000
vn -0.0000 -0.0000 -1.0000
vn -1.0000 -0.0000 -0.0000
vn 1.0000 -0.0000 -0.0000
vn -0.0000 -0.0000 1.0000
vt 0.394531 0.960938
vt 0.394531 0.945312
vt 0.402344 0.945312
vt 0.402344 0.960938
vt 0.402324 0.945352
vt 0.402324 0.960898
vt 0.394551 0.960898
vt 0.394551 0.945352
s 0
usemtl terrain_atlas.terrain.001
f 1/1/1 2/2/1 3/3/1
f 4/4/1 1/1/1 3/3/1
f 5/5/2 6/6/2 7/7/2
f 8/8/2 5/5/2 7/7/2
f 9/6/3 10/7/3 11/8/3
f 12/5/3 9/6/3 11/8/3
f 13/6/4 14/7/4 15/8/4
f 16/5/4 13/6/4 15/8/4
f 17/8/5 18/5/5 19/6/5
f 20/7/5 17/8/5 19/6/5
f 21/1/1 22/2/1 23/3/1
f 24/4/1 21/1/1 23/3/1
f 25/6/4 26/7/4 27/8/4
f 28/5/4 25/6/4 27/8/4
f 29/8/5 30/5/5 31/6/5
f 32/7/5 29/8/5 31/6/5
f 33/6/3 34/7/3 35/8/3
f 36/5/3 33/6/3 35/8/3
f 37/7/6 38/8/6 39/5/6
f 40/6/6 37/7/6 39/5/6
f 41/6/4 42/7/4 43/8/4
f 44/5/4 41/6/4 43/8/4
f 45/8/5 46/5/5 47/6/5
f 48/7/5 45/8/5 47/6/5
f 49/6/3 50/7/3 51/8/3
f 52/5/3 49/6/3 51/8/3
f 53/7/6 54/8/6 55/5/6
f 56/6/6 53/7/6 55/5/6
f 57/6/4 58/7/4 59/8/4
f 60/5/4 57/6/4 59/8/4
f 61/8/5 62/5/5 63/6/5
f 64/7/5 61/8/5 63/6/5
f 65/5/2 66/6/2 67/7/2
f 68/8/2 65/5/2 67/7/2
f 69/6/3 70/7/3 71/8/3
f 72/5/3 69/6/3 71/8/3
f 73/6/4 74/7/4 75/8/4
f 76/5/4 73/6/4 75/8/4
f 77/8/5 78/5/5 79/6/5
f 80/7/5 77/8/5 79/6/5
f 81/1/1 82/2/1 83/3/1
f 84/4/1 81/1/1 83/3/1
f 85/5/2 86/6/2 87/7/2
f 88/8/2 85/5/2 87/7/2
f 89/7/6 90/8/6 91/5/6
f 92/6/6 89/7/6 91/5/6
f 93/6/4 94/7/4 95/8/4
f 96/5/4 93/6/4 95/8/4
f 97/8/5 98/5/5 99/6/5
f 100/7/5 97/8/5 99/6/5
f 101/1/1 102/2/1 103/3/1
f 104/4/1 101/1/1 103/3/1
f 105/5/2 106/6/2 107/7/2
f 108/8/2 105/5/2 107/7/2
f 109/7/6 110/8/6 111/5/6
f 112/6/6 109/7/6 111/5/6
f 113/6/4 114/7/4 115/8/4
f 116/5/4 113/6/4 115/8/4
f 117/8/5 118/5/5 119/6/5
f 120/7/5 117/8/5 119/6/5
o node_2
v -2.500000 -1.500000 -1.500000
v -2.500000 -1.500000 -2.500000
v -1.500000 -1.500000 -2.500000
v -1.500000 -1.500000 -1.500000
v -1.500000 -0.500000 -1.500000
v -1.500000 -0.500000 -2.500000
v -2.500000 -0.500000 -2.500000
v -2.500000 -0.500000 -1.500000
v -2.500000 -0.500000 -2.500000
v -1.500000 -0.500000 -2.500000
v -1.500000 -1.500000 -2.500000
v -2.500000 -1.500000 -2.500000
v -2.500000 -0.500000 -1.500000
v -2.500000 -1.500000 -1.500000
v -1.500000 -1.500000 -1.500000
v -1.500000 -0.500000 -1.500000
v -2.500000 -0.500000 -1.500000
v -2.500000 -0.500000 -2.500000
v -2.500000 -1.500000 -2.500000
v -2.500000 -1.500000 -1.500000
v -1.500000 -1.500000 -1.500000
v -1.500000 -1.500000 -2.500000
v -1.500000 -0.500000 -2.500000
v -1.500000 -0.500000 -1.500000
vn -0.0000 -1.0000 -0.0000
vn -0.0000 1.0000 -0.0000
vn -0.0000 -0.0000 -1.0000
vn -0.0000 -0.0000 1.0000
vn -1.0000 -0.0000 -0.0000
vn 1.0000 -0.0000 -0.0000
vt 0.394531 0.523438
vt 0.394531 0.507812
vt 0.402344 0.507812
vt 0.402344 0.523438
vt 0.402324 0.507852
vt 0.402324 0.523398
vt 0.394551 0.523398
vt 0.394551 0.507852
s 0
usemtl terrain_atlas.terrain.001
f 121/9/7 122/10/7 123/11/7
f 124/12/7 121/9/7 123/11/7
f 125/13/8 126/14/8 127/15/8
f 128/16/8 125/13/8 127/15/8
f 129/14/9 130/15/9 131/16/9
f 132/13/9 129/14/9 131/16/9
f 133/15/10 134/16/10 135/13/10
f 136/14/10 133/15/10 135/13/10
f 137/14/11 138/15/11 139/16/11
f 140/13/11 137/14/11 139/16/11
f 141/16/12 142/13/12 143/14/12
f 144/15/12 141/16/12 143/14/12
