# Blender 3.6.1
# www.blender.org
mtllib 3_space.mtl
o node_1
v -0.500000 -2.500000 -0.500000
v -0.500000 -2.500000 -1.500000
v 0.500000 -2.500000 -1.500000
v 0.500000 -2.500000 -0.500000
v -0.500000 -1.500000 -1.500000
v 0.500000 -1.500000 -1.500000
v 0.500000 -2.500000 -1.500000
v -0.500000 -2.500000 -1.500000
v -0.500000 -1.500000 -0.500000
v -0.500000 -1.500000 -1.500000
v -0.500000 -2.500000 -1.500000
v -0.500000 -2.500000 -0.500000
v 0.500000 -2.500000 -0.500000
v 0.500000 -2.500000 -1.500000
v 0.500000 -1.500000 -1.500000
v 0.500000 -1.500000 -0.500000
v -0.500000 -0.500000 -1.500000
v 0.500000 -0.500000 -1.500000
v 0.500000 -1.500000 -1.500000
v -0.500000 -1.500000 -1.500000
v -0.500000 -0.500000 -0.500000
v -0.500000 -0.500000 -1.500000
v -0.500000 -1.500000 -1.500000
v -0.500000 -1.500000 -0.500000
v 0.500000 -1.500000 -0.500000
v 0.500000 -1.500000 -1.500000
v 0.500000 -0.500000 -1.500000
v 0.500000 -0.500000 -0.500000
v -0.500000 0.500000 -1.500000
v 0.500000 0.500000 -1.500000
v 0.500000 -0.500000 -1.500000
v -0.500000 -0.500000 -1.500000
v -0.500000 0.500000 -0.500000
v -0.500000 -0.500000 -0.500000
v 0.500000 -0.500000 -0.500000
v 0.500000 0.500000 -0.500000
v -0.500000 0.500000 -0.500000
v -0.500000 0.500000 -1.500000
v -0.500000 -0.500000 -1.500000
v -0.500000 -0.500000 -0.500000
v 0.500000 -0.500000 -0.500000
v 0.500000 -0.500000 -1.500000
v 0.500000 0.500000 -1.500000
v 0.500000 0.500000 -0.500000
v 0.500000 1.500000 -0.500000
v 0.500000 1.500000 -1.500000
v -0.500000 1.500000 -1.500000
v -0.500000 1.500000 -0.500000
v -0.500000 1.500000 -1.500000
v 0.500000 1.500000 -1.500000
v 0.500000 0.500000 -1.500000
v -0.500000 0.500000 -1.500000
v -0.500000 1.500000 -0.500000
v -0.500000 1.500000 -1.500000
v -0.500000 0.500000 -1.500000
v -0.500000 0.500000 -0.500000
v 0.500000 0.500000 -0.500000
v 0.500000 0.500000 -1.500000
v 0.500000 1.500000 -1.500000
v 0.500000 1.500000 -0.500000
v -0.500000 -2.500000 0.500000
v -0.500000 -2.500000 -0.500000
v 0.500000 -2.500000 -0.500000
v 0.500000 -2.500000 0.500000
v -0.500000 -1.500000 0.500000
v -0.500000 -1.500000 -0.500000
v -0.500000 -2.500000 -0.500000
v -0.500000 -2.500000 0.500000
v 0.500000 -2.500000 0.500000
v 0.500000 -2.500000 -0.500000
v 0.500000 -1.500000 -0.500000
v 0.500000 -1.500000 0.500000
v 0.500000 -0.500000 0.500000
v 0.500000 -0.500000 -0.500000
v -0.500000 -0.500000 -0.500000
v -0.500000 -0.500000 0.500000
v -0.500000 -0.500000 0.500000
v -0.500000 -1.500000 0.500000
v 0.500000 -1.500000 0.500000
v 0.500000 -0.500000 0.500000
v -0.500000 -0.500000 0.500000
v -0.500000 -0.500000 -0.500000
v -0.500000 -1.500000 -0.500000
v -0.500000 -1.500000 0.500000
v 0.500000 -1.500000 0.500000
v 0.500000 -1.500000 -0.500000
v 0.500000 -0.500000 -0.500000
v 0.500000 -0.500000 0.500000
v -0.500000 0.500000 0.500000
v -0.500000 0.500000 -0.500000
v 0.500000 0.500000 -0.500000
v 0.500000 0.500000 0.500000
v 0.500000 1.500000 0.500000
v 0.500000 1.500000 -0.500000
v -0.500000 1.500000 -0.500000
v -0.500000 1.500000 0.500000
v -0.500000 1.500000 0.500000
v -0.500000 1.500000 -0.500000
v -0.500000 0.500000 -0.500000
v -0.500000 0.500000 0.500000
v 0.500000 0.500000 0.500000
v 0.500000 0.500000 -0.500000
v 0.500000 1.500000 -0.500000
v 0.500000 1.500000 0.500000
v -0.500000 -2.500000 1.500000
v -0.500000 -2.500000 0.500000
v 0.500000 -2.500000 0.500000
v 0.500000 -2.500000 1.500000
v 0.500000 -1.500000 1.500000
v 0.500000 -1.500000 0.500000
v -0.500000 -1.500000 0.500000
v -0.500000 -1.500000 1.500000
v -0.500000 -1.500000 1.500000
v -0.500000 -2.500000 1.500000
v 0.500000 -2.500000 1.500000
v 0.500000 -1.500000 1.500000
v -0.500000 -1.500000 1.500000
v -0.500000 -1.500000 0.500000
v -0.500000 -2.500000 0.500000
v -0.500000 -2.500000 1.500000
v 0.500000 -2.500000 1.500000
v 0.500000 -2.500000 0.500000
v 0.500000 -1.500000 0.500000
v 0.500000 -1.500000 1.500000
v -0.500000 0.500000 1.500000
v -0.500000 0.500000 0.500000
v 0.500000 0.500000 0.500000
v 0.500000 0.500000 1.500000
v 0.500000 1.500000 1.500000
v 0.500000 1.500000 0.500000
v -0.500000 1.500000 0.500000
v -0.500000 1.500000 1.500000
v -0.500000 1.500000 1.500000
v -0.500000 0.500000 1.500000
v 0.500000 0.500000 1.500000
v 0.500000 1.500000 1.500000
v -0.500000 1.500000 1.500000
v -0.500000 1.500000 0.500000
v -0.500000 0.500000 0.500000
v -0.500000 0.500000 1.500000
v 0.500000 0.500000 1.500000
v 0.500000 0.500000 0.500000
v 0.500000 1.500000 0.500000
v 0.500000 1.500000 1.500000
vn -0.0000 -1.0000 -0.0000
vn -0.0000 -0.0000 -1.0000
vn -1.0000 -0.0000 -0.0000
vn 1.0000 -0.0000 -0.0000
vn -0.0000 -0.0000 1.0000
vn -0.0000 1.0000 -0.0000
vt 0.394531 0.960938
vt 0.394531 0.945312
vt 0.402344 0.945312
vt 0.402344 0.960938
vt 0.402324 0.960898
vt 0.394551 0.960898
vt 0.394551 0.945352
vt 0.402324 0.945352
s 0
usemtl terrain_atlas.terrain.003
f 1/1/1 2/2/1 3/3/1
f 4/4/1 1/1/1 3/3/1
f 5/5/2 6/6/2 7/7/2
f 8/8/2 5/5/2 7/7/2
f 9/5/3 10/6/3 11/7/3
f 12/8/3 9/5/3 11/7/3
f 13/7/4 14/8/4 15/5/4
f 16/6/4 13/7/4 15/5/4
f 17/5/2 18/6/2 19/7/2
f 20/8/2 17/5/2 19/7/2
f 21/5/3 22/6/3 23/7/3
f 24/8/3 21/5/3 23/7/3
f 25/7/4 26/8/4 27/5/4
f 28/6/4 25/7/4 27/5/4
f 29/5/2 30/6/2 31/7/2
f 32/8/2 29/5/2 31/7/2
f 33/6/5 34/7/5 35/8/5
f 36/5/5 33/6/5 35/8/5
f 37/5/3 38/6/3 39/7/3
f 40/8/3 37/5/3 39/7/3
f 41/7/4 42/8/4 43/5/4
f 44/6/4 41/7/4 43/5/4
f 45/8/6 46/5/6 47/6/6
f 48/7/6 45/8/6 47/6/6
f 49/5/2 50/6/2 51/7/2
f 52/8/2 49/5/2 51/7/2
f 53/5/3 54/6/3 55/7/3
f 56/8/3 53/5/3 55/7/3
f 57/7/4 58/8/4 59/5/4
f 60/6/4 57/7/4 59/5/4
f 61/1/1 62/2/1 63/3/1
f 64/4/1 61/1/1 63/3/1
f 65/5/3 66/6/3 67/7/3
f 68/8/3 65/5/3 67/7/3
f 69/7/4 70/8/4 71/5/4
f 72/6/4 69/7/4 71/5/4
f 73/8/6 74/5/6 75/6/6
f 76/7/6 73/8/6 75/6/6
f 77/6/5 78/7/5 79/8/5
f 80/5/5 77/6/5 79/8/5
f 81/5/3 82/6/3 83/7/3
f 84/8/3 81/5/3 83/7/3
f 85/7/4 86/8/4 87/5/4
f 88/6/4 85/7/4 87/5/4
f 89/1/1 90/2/1 91/3/1
f 92/4/1 89/1/1 91/3/1
f 93/8/6 94/5/6 95/6/6
f 96/7/6 93/8/6 95/6/6
f 97/5/3 98/6/3 99/7/3
f 100/8/3 97/5/3 99/7/3
f 101/7/4 102/8/4 103/5/4
f 104/6/4 101/7/4 103/5/4
f 105/1/1 106/2/1 107/3/1
f 108/4/1 105/1/1 107/3/1
f 109/8/6 110/5/6 111/6/6
f 112/7/6 109/8/6 111/6/6
f 113/6/5 114/7/5 115/8/5
f 116/5/5 113/6/5 115/8/5
f 117/5/3 118/6/3 119/7/3
f 120/8/3 117/5/3 119/7/3
f 121/7/4 122/8/4 123/5/4
f 124/6/4 121/7/4 123/5/4
f 125/1/1 126/2/1 127/3/1
f 128/4/1 125/1/1 127/3/1
f 129/8/6 130/5/6 131/6/6
f 132/7/6 129/8/6 131/6/6
f 133/6/5 134/7/5 135/8/5
f 136/5/5 133/6/5 135/8/5
f 137/5/3 138/6/3 139/7/3
f 140/8/3 137/5/3 139/7/3
f 141/7/4 142/8/4 143/5/4
f 144/6/4 141/7/4 143/5/4
o node_2
v -2.500000 -1.500000 -1.500000
v -2.500000 -1.500000 -2.500000
v -1.500000 -1.500000 -2.500000
v -1.500000 -1.500000 -1.500000
v -1.500000 -0.500000 -1.500000
v -1.500000 -0.500000 -2.500000
v -2.500000 -0.500000 -2.500000
v -2.500000 -0.500000 -1.500000
v -2.500000 -0.500000 -2.500000
v -1.500000 -0.500000 -2.500000
v -1.500000 -1.500000 -2.500000
v -2.500000 -1.500000 -2.500000
v -2.500000 -0.500000 -1.500000
v -2.500000 -1.500000 -1.500000
v -1.500000 -1.500000 -1.500000
v -1.500000 -0.500000 -1.500000
v -2.500000 -0.500000 -1.500000
v -2.500000 -0.500000 -2.500000
v -2.500000 -1.500000 -2.500000
v -2.500000 -1.500000 -1.500000
v -1.500000 -1.500000 -1.500000
v -1.500000 -1.500000 -2.500000
v -1.500000 -0.500000 -2.500000
v -1.500000 -0.500000 -1.500000
vn -0.0000 -1.0000 -0.0000
vn -0.0000 1.0000 -0.0000
vn -0.0000 -0.0000 -1.0000
vn -0.0000 -0.0000 1.0000
vn -1.0000 -0.0000 -0.0000
vn 1.0000 -0.0000 -0.0000
vt 0.457031 0.523438
vt 0.457031 0.507812
vt 0.464844 0.507812
vt 0.464844 0.523438
vt 0.464824 0.507852
vt 0.464824 0.523398
vt 0.457051 0.523398
vt 0.457051 0.507852
s 0
usemtl terrain_atlas.terrain.003
f 145/9/7 146/10/7 147/11/7
f 148/12/7 145/9/7 147/11/7
f 149/13/8 150/14/8 151/15/8
f 152/16/8 149/13/8 151/15/8
f 153/14/9 154/15/9 155/16/9
f 156/13/9 153/14/9 155/16/9
f 157/15/10 158/16/10 159/13/10
f 160/14/10 157/15/10 159/13/10
f 161/14/11 162/15/11 163/16/11
f 164/13/11 161/14/11 163/16/11
f 165/16/12 166/13/12 167/14/12
f 168/15/12 165/16/12 167/14/12
