# Blender 3.6.1
# www.blender.org
mtllib 4_western.mtl
o node_1
v -0.500000 -2.500000 -0.500000
v -0.500000 -2.500000 -1.500000
v 0.500000 -2.500000 -1.500000
v 0.500000 -2.500000 -0.500000
v -0.500000 -1.500000 -1.500000
v 0.500000 -1.500000 -1.500000
v 0.500000 -2.500000 -1.500000
v -0.500000 -2.500000 -1.500000
v -0.500000 -1.500000 -0.500000
v -0.500000 -2.500000 -0.500000
v 0.500000 -2.500000 -0.500000
v 0.500000 -1.500000 -0.500000
v -0.500000 -1.500000 -0.500000
v -0.500000 -1.500000 -1.500000
v -0.500000 -2.500000 -1.500000
v -0.500000 -2.500000 -0.500000
v 0.500000 -2.500000 -0.500000
v 0.500000 -2.500000 -1.500000
v 0.500000 -1.500000 -1.500000
v 0.500000 -1.500000 -0.500000
v -0.500000 -0.500000 -1.500000
v 0.500000 -0.500000 -1.500000
v 0.500000 -1.500000 -1.500000
v -0.500000 -1.500000 -1.500000
v -0.500000 -0.500000 -0.500000
v -0.500000 -0.500000 -1.500000
v -0.500000 -1.500000 -1.500000
v -0.500000 -1.500000 -0.500000
v 0.500000 -1.500000 -0.500000
v 0.500000 -1.500000 -1.500000
v 0.500000 -0.500000 -1.500000
v 0.500000 -0.500000 -0.500000
v -0.500000 0.500000 -1.500000
v 0.500000 0.500000 -1.500000
v 0.500000 -0.500000 -1.500000
v -0.500000 -0.500000 -1.500000
v -0.500000 0.500000 -0.500000
v -0.500000 -0.500000 -0.500000
v 0.500000 -0.500000 -0.500000
v 0.500000 0.500000 -0.500000
v -0.500000 0.500000 -0.500000
v -0.500000 0.500000 -1.500000
v -0.500000 -0.500000 -1.500000
v -0.500000 -0.500000 -0.500000
v 0.500000 -0.500000 -0.500000
v 0.500000 -0.500000 -1.500000
v 0.500000 0.500000 -1.500000
v 0.500000 0.500000 -0.500000
v 0.500000 1.500000 -0.500000
v 0.500000 1.500000 -1.500000
v -0.500000 1.500000 -1.500000
v -0.500000 1.500000 -0.500000
v -0.500000 1.500000 -1.500000
v 0.500000 1.500000 -1.500000
v 0.500000 0.500000 -1.500000
v -0.500000 0.500000 -1.500000
v -0.500000 1.500000 -0.500000
v -0.500000 0.500000 -0.500000
v 0.500000 0.500000 -0.500000
v 0.500000 1.500000 -0.500000
v -0.500000 1.500000 -0.500000
v -0.500000 1.500000 -1.500000
v -0.500000 0.500000 -1.500000
v -0.500000 0.500000 -0.500000
v 0.500000 0.500000 -0.500000
v 0.500000 0.500000 -1.500000
v 0.500000 1.500000 -1.500000
v 0.500000 1.500000 -0.500000
v -0.500000 -1.500000 0.500000
v -0.500000 -1.500000 -0.500000
v 0.500000 -1.500000 -0.500000
v 0.500000 -1.500000 0.500000
v 0.500000 -0.500000 0.500000
v 0.500000 -0.500000 -0.500000
v -0.500000 -0.500000 -0.500000
v -0.500000 -0.500000 0.500000
v -0.500000 -0.500000 0.500000
v -0.500000 -0.500000 -0.500000
v -0.500000 -1.500000 -0.500000
v -0.500000 -1.500000 0.500000
v 0.500000 -1.500000 0.500000
v 0.500000 -1.500000 -0.500000
v 0.500000 -0.500000 -0.500000
v 0.500000 -0.500000 0.500000
v -0.500000 -1.500000 1.500000
v -0.500000 -1.500000 0.500000
v 0.500000 -1.500000 0.500000
v 0.500000 -1.500000 1.500000
v -0.500000 -0.500000 1.500000
v -0.500000 -1.500000 1.500000
v 0.500000 -1.500000 1.500000
v 0.500000 -0.500000 1.500000
v -0.500000 -0.500000 1.500000
v -0.500000 -0.500000 0.500000
v -0.500000 -1.500000 0.500000
v -0.500000 -1.500000 1.500000
v 0.500000 -1.500000 1.500000
v 0.500000 -1.500000 0.500000
v 0.500000 -0.500000 0.500000
v 0.500000 -0.500000 1.500000
v -0.500000 0.500000 0.500000
v 0.500000 0.500000 0.500000
v 0.500000 -0.500000 0.500000
v -0.500000 -0.500000 0.500000
v -0.500000 0.500000 1.500000
v -0.500000 -0.500000 1.500000
v 0.500000 -0.500000 1.500000
v 0.500000 0.500000 1.500000
v -0.500000 0.500000 1.500000
v -0.500000 0.500000 0.500000
v -0.500000 -0.500000 0.500000
v -0.500000 -0.500000 1.500000
v 0.500000 -0.500000 1.500000
v 0.500000 -0.500000 0.500000
v 0.500000 0.500000 0.500000
v 0.500000 0.500000 1.500000
v 0.500000 1.500000 1.500000
v 0.500000 1.500000 0.500000
v -0.500000 1.500000 0.500000
v -0.500000 1.500000 1.500000
v -0.500000 1.500000 0.500000
v 0.500000 1.500000 0.500000
v 0.500000 0.500000 0.500000
v -0.500000 0.500000 0.500000
v -0.500000 1.500000 1.500000
v -0.500000 0.500000 1.500000
v 0.500000 0.500000 1.500000
v 0.500000 1.500000 1.500000
v -0.500000 1.500000 1.500000
v -0.500000 1.500000 0.500000
v -0.500000 0.500000 0.500000
v -0.500000 0.500000 1.500000
v 0.500000 0.500000 1.500000
v 0.500000 0.500000 0.500000
v 0.500000 1.500000 0.500000
v 0.500000 1.500000 1.500000
vn -0.0000 -1.0000 -0.0000
vn -0.0000 -0.0000 -1.0000
vn -0.0000 -0.0000 1.0000
vn -1.0000 -0.0000 -0.0000
vn 1.0000 -0.0000 -0.0000
vn -0.0000 1.0000 -0.0000
vt 0.394531 0.960938
vt 0.394531 0.945312
vt 0.402344 0.945312
vt 0.402344 0.960938
vt 0.402324 0.960898
vt 0.394551 0.960898
vt 0.394551 0.945352
vt 0.402324 0.945352
s 0
usemtl terrain_atlas.terrain.004
f 1/1/1 2/2/1 3/3/1
f 4/4/1 1/1/1 3/3/1
f 5/5/2 6/6/2 7/7/2
f 8/8/2 5/5/2 7/7/2
f 9/6/3 10/7/3 11/8/3
f 12/5/3 9/6/3 11/8/3
f 13/5/4 14/6/4 15/7/4
f 16/8/4 13/5/4 15/7/4
f 17/7/5 18/8/5 19/5/5
f 20/6/5 17/7/5 19/5/5
f 21/5/2 22/6/2 23/7/2
f 24/8/2 21/5/2 23/7/2
f 25/5/4 26/6/4 27/7/4
f 28/8/4 25/5/4 27/7/4
f 29/7/5 30/8/5 31/5/5
f 32/6/5 29/7/5 31/5/5
f 33/5/2 34/6/2 35/7/2
f 36/8/2 33/5/2 35/7/2
f 37/6/3 38/7/3 39/8/3
f 40/5/3 37/6/3 39/8/3
f 41/5/4 42/6/4 43/7/4
f 44/8/4 41/5/4 43/7/4
f 45/7/5 46/8/5 47/5/5
f 48/6/5 45/7/5 47/5/5
f 49/8/6 50/5/6 51/6/6
f 52/7/6 49/8/6 51/6/6
f 53/5/2 54/6/2 55/7/2
f 56/8/2 53/5/2 55/7/2
f 57/6/3 58/7/3 59/8/3
f 60/5/3 57/6/3 59/8/3
f 61/5/4 62/6/4 63/7/4
f 64/8/4 61/5/4 63/7/4
f 65/7/5 66/8/5 67/5/5
f 68/6/5 65/7/5 67/5/5
f 69/1/1 70/2/1 71/3/1
f 72/4/1 69/1/1 71/3/1
f 73/8/6 74/5/6 75/6/6
f 76/7/6 73/8/6 75/6/6
f 77/5/4 78/6/4 79/7/4
f 80/8/4 77/5/4 79/7/4
f 81/7/5 82/8/5 83/5/5
f 84/6/5 81/7/5 83/5/5
f 85/1/1 86/2/1 87/3/1
f 88/4/1 85/1/1 87/3/1
f 89/6/3 90/7/3 91/8/3
f 92/5/3 89/6/3 91/8/3
f 93/5/4 94/6/4 95/7/4
f 96/8/4 93/5/4 95/7/4
f 97/7/5 98/8/5 99/5/5
f 100/6/5 97/7/5 99/5/5
f 101/5/2 102/6/2 103/7/2
f 104/8/2 101/5/2 103/7/2
f 105/6/3 106/7/3 107/8/3
f 108/5/3 105/6/3 107/8/3
f 109/5/4 110/6/4 111/7/4
f 112/8/4 109/5/4 111/7/4
f 113/7/5 114/8/5 115/5/5
f 116/6/5 113/7/5 115/5/5
f 117/8/6 118/5/6 119/6/6
f 120/7/6 117/8/6 119/6/6
f 121/5/2 122/6/2 123/7/2
f 124/8/2 121/5/2 123/7/2
f 125/6/3 126/7/3 127/8/3
f 128/5/3 125/6/3 127/8/3
f 129/5/4 130/6/4 131/7/4
f 132/8/4 129/5/4 131/7/4
f 133/7/5 134/8/5 135/5/5
f 136/6/5 133/7/5 135/5/5
o node_2
v -2.500000 -1.500000 -1.500000
v -2.500000 -1.500000 -2.500000
v -1.500000 -1.500000 -2.500000
v -1.500000 -1.500000 -1.500000
v -1.500000 -0.500000 -1.500000
v -1.500000 -0.500000 -2.500000
v -2.500000 -0.500000 -2.500000
v -2.500000 -0.500000 -1.500000
v -2.500000 -0.500000 -2.500000
v -1.500000 -0.500000 -2.500000
v -1.500000 -1.500000 -2.500000
v -2.500000 -1.500000 -2.500000
v -2.500000 -0.500000 -1.500000
v -2.500000 -1.500000 -1.500000
v -1.500000 -1.500000 -1.500000
v -1.500000 -0.500000 -1.500000
v -2.500000 -0.500000 -1.500000
v -2.500000 -0.500000 -2.500000
v -2.500000 -1.500000 -2.500000
v -2.500000 -1.500000 -1.500000
v -1.500000 -1.500000 -1.500000
v -1.500000 -1.500000 -2.500000
v -1.500000 -0.500000 -2.500000
v -1.500000 -0.500000 -1.500000
vn -0.0000 -1.0000 -0.0000
vn -0.0000 1.0000 -0.0000
vn -0.0000 -0.0000 -1.0000
vn -0.0000 -0.0000 1.0000
vn -1.0000 -0.0000 -0.0000
vn 1.0000 -0.0000 -0.0000
vt 0.457031 0.523438
vt 0.457031 0.507812
vt 0.464844 0.507812
vt 0.464844 0.523438
vt 0.464824 0.507852
vt 0.464824 0.523398
vt 0.457051 0.523398
vt 0.457051 0.507852
s 0
usemtl terrain_atlas.terrain.004
f 137/9/7 138/10/7 139/11/7
f 140/12/7 137/9/7 139/11/7
f 141/13/8 142/14/8 143/15/8
f 144/16/8 141/13/8 143/15/8
f 145/14/9 146/15/9 147/16/9
f 148/13/9 145/14/9 147/16/9
f 149/15/10 150/16/10 151/13/10
f 152/14/10 149/15/10 151/13/10
f 153/14/11 154/15/11 155/16/11
f 156/13/11 153/14/11 155/16/11
f 157/16/12 158/13/12 159/14/12
f 160/15/12 157/16/12 159/14/12
