# Blender 3.6.1
# www.blender.org
mtllib 9_redstone.mtl
o node_1
v -0.500000 -2.500000 -0.500000
v -0.500000 -2.500000 -1.500000
v 0.500000 -2.500000 -1.500000
v 0.500000 -2.500000 -0.500000
v -0.500000 -1.500000 -1.500000
v 0.500000 -1.500000 -1.500000
v 0.500000 -2.500000 -1.500000
v -0.500000 -2.500000 -1.500000
v -0.500000 -1.500000 -0.500000
v -0.500000 -2.500000 -0.500000
v 0.500000 -2.500000 -0.500000
v 0.500000 -1.500000 -0.500000
v -0.500000 -1.500000 -0.500000
v -0.500000 -1.500000 -1.500000
v -0.500000 -2.500000 -1.500000
v -0.500000 -2.500000 -0.500000
v 0.500000 -2.500000 -0.500000
v 0.500000 -2.500000 -1.500000
v 0.500000 -1.500000 -1.500000
v 0.500000 -1.500000 -0.500000
v -0.500000 -0.500000 -1.500000
v 0.500000 -0.500000 -1.500000
v 0.500000 -1.500000 -1.500000
v -0.500000 -1.500000 -1.500000
v -0.500000 -0.500000 -0.500000
v -0.500000 -0.500000 -1.500000
v -0.500000 -1.500000 -1.500000
v -0.500000 -1.500000 -0.500000
v 0.500000 -1.500000 -0.500000
v 0.500000 -1.500000 -1.500000
v 0.500000 -0.500000 -1.500000
v 0.500000 -0.500000 -0.500000
v -0.500000 0.500000 -1.500000
v 0.500000 0.500000 -1.500000
v 0.500000 -0.500000 -1.500000
v -0.500000 -0.500000 -1.500000
v -0.500000 0.500000 -0.500000
v -0.500000 -0.500000 -0.500000
v 0.500000 -0.500000 -0.500000
v 0.500000 0.500000 -0.500000
v -0.500000 0.500000 -0.500000
v -0.500000 0.500000 -1.500000
v -0.500000 -0.500000 -1.500000
v -0.500000 -0.500000 -0.500000
v 0.500000 -0.500000 -0.500000
v 0.500000 -0.500000 -1.500000
v 0.500000 0.500000 -1.500000
v 0.500000 0.500000 -0.500000
v 0.500000 1.500000 -0.500000
v 0.500000 1.500000 -1.500000
v -0.500000 1.500000 -1.500000
v -0.500000 1.500000 -0.500000
v -0.500000 1.500000 -1.500000
v 0.500000 1.500000 -1.500000
v 0.500000 0.500000 -1.500000
v -0.500000 0.500000 -1.500000
v -0.500000 1.500000 -0.500000
v -0.500000 1.500000 -1.500000
v -0.500000 0.500000 -1.500000
v -0.500000 0.500000 -0.500000
v 0.500000 0.500000 -0.500000
v 0.500000 0.500000 -1.500000
v 0.500000 1.500000 -1.500000
v 0.500000 1.500000 -0.500000
v -0.500000 -1.500000 0.500000
v -0.500000 -1.500000 -0.500000
v 0.500000 -1.500000 -0.500000
v 0.500000 -1.500000 0.500000
v 0.500000 -0.500000 0.500000
v 0.500000 -0.500000 -0.500000
v -0.500000 -0.500000 -0.500000
v -0.500000 -0.500000 0.500000
v -0.500000 -0.500000 0.500000
v -0.500000 -0.500000 -0.500000
v -0.500000 -1.500000 -0.500000
v -0.500000 -1.500000 0.500000
v 0.500000 -1.500000 0.500000
v 0.500000 -1.500000 -0.500000
v 0.500000 -0.500000 -0.500000
v 0.500000 -0.500000 0.500000
v -0.500000 0.500000 0.500000
v -0.500000 0.500000 -0.500000
v 0.500000 0.500000 -0.500000
v 0.500000 0.500000 0.500000
v 0.500000 1.500000 0.500000
v 0.500000 1.500000 -0.500000
v -0.500000 1.500000 -0.500000
v -0.500000 1.500000 0.500000
v -0.500000 1.500000 0.500000
v -0.500000 1.500000 -0.500000
v -0.500000 0.500000 -0.500000
v -0.500000 0.500000 0.500000
v 0.500000 0.500000 0.500000
v 0.500000 0.500000 -0.500000
v 0.500000 1.500000 -0.500000
v 0.500000 1.500000 0.500000
v -0.500000 -1.500000 1.500000
v -0.500000 -1.500000 0.500000
v 0.500000 -1.500000 0.500000
v 0.500000 -1.500000 1.500000
v -0.500000 -0.500000 1.500000
v -0.500000 -1.500000 1.500000
v 0.500000 -1.500000 1.500000
v 0.500000 -0.500000 1.500000
v -0.500000 -0.500000 1.500000
v -0.500000 -0.500000 0.500000
v -0.500000 -1.500000 0.500000
v -0.500000 -1.500000 1.500000
v 0.500000 -1.500000 1.500000
v 0.500000 -1.500000 0.500000
v 0.500000 -0.500000 0.500000
v 0.500000 -0.500000 1.500000
v -0.500000 0.500000 0.500000
v 0.500000 0.500000 0.500000
v 0.500000 -0.500000 0.500000
v -0.500000 -0.500000 0.500000
v -0.500000 0.500000 1.500000
v -0.500000 -0.500000 1.500000
v 0.500000 -0.500000 1.500000
v 0.500000 0.500000 1.500000
v -0.500000 0.500000 1.500000
v -0.500000 0.500000 0.500000
v -0.500000 -0.500000 0.500000
v -0.500000 -0.500000 1.500000
v 0.500000 -0.500000 1.500000
v 0.500000 -0.500000 0.500000
v 0.500000 0.500000 0.500000
v 0.500000 0.500000 1.500000
v 0.500000 1.500000 1.500000
v 0.500000 1.500000 0.500000
v -0.500000 1.500000 0.500000
v -0.500000 1.500000 1.500000
v -0.500000 1.500000 1.500000
v -0.500000 0.500000 1.500000
v 0.500000 0.500000 1.500000
v 0.500000 1.500000 1.500000
v -0.500000 1.500000 1.500000
v -0.500000 1.500000 0.500000
v -0.500000 0.500000 0.500000
v -0.500000 0.500000 1.500000
v 0.500000 0.500000 1.500000
v 0.500000 0.500000 0.500000
v 0.500000 1.500000 0.500000
v 0.500000 1.500000 1.500000
vn -0.0000 -1.0000 -0.0000
vn -0.0000 -0.0000 -1.0000
vn -0.0000 -0.0000 1.0000
vn -1.0000 -0.0000 -0.0000
vn 1.0000 -0.0000 -0.0000
vn -0.0000 1.0000 -0.0000
vt 0.394531 0.960938
vt 0.394531 0.945312
vt 0.402344 0.945312
vt 0.402344 0.960938
vt 0.402324 0.960898
vt 0.394551 0.960898
vt 0.394551 0.945352
vt 0.402324 0.945352
s 0
usemtl terrain_atlas.terrain.009
f 1/1/1 2/2/1 3/3/1
f 4/4/1 1/1/1 3/3/1
f 5/5/2 6/6/2 7/7/2
f 8/8/2 5/5/2 7/7/2
f 9/6/3 10/7/3 11/8/3
f 12/5/3 9/6/3 11/8/3
f 13/5/4 14/6/4 15/7/4
f 16/8/4 13/5/4 15/7/4
f 17/7/5 18/8/5 19/5/5
f 20/6/5 17/7/5 19/5/5
f 21/5/2 22/6/2 23/7/2
f 24/8/2 21/5/2 23/7/2
f 25/5/4 26/6/4 27/7/4
f 28/8/4 25/5/4 27/7/4
f 29/7/5 30/8/5 31/5/5
f 32/6/5 29/7/5 31/5/5
f 33/5/2 34/6/2 35/7/2
f 36/8/2 33/5/2 35/7/2
f 37/6/3 38/7/3 39/8/3
f 40/5/3 37/6/3 39/8/3
f 41/5/4 42/6/4 43/7/4
f 44/8/4 41/5/4 43/7/4
f 45/7/5 46/8/5 47/5/5
f 48/6/5 45/7/5 47/5/5
f 49/8/6 50/5/6 51/6/6
f 52/7/6 49/8/6 51/6/6
f 53/5/2 54/6/2 55/7/2
f 56/8/2 53/5/2 55/7/2
f 57/5/4 58/6/4 59/7/4
f 60/8/4 57/5/4 59/7/4
f 61/7/5 62/8/5 63/5/5
f 64/6/5 61/7/5 63/5/5
f 65/1/1 66/2/1 67/3/1
f 68/4/1 65/1/1 67/3/1
f 69/8/6 70/5/6 71/6/6
f 72/7/6 69/8/6 71/6/6
f 73/5/4 74/6/4 75/7/4
f 76/8/4 73/5/4 75/7/4
f 77/7/5 78/8/5 79/5/5
f 80/6/5 77/7/5 79/5/5
f 81/1/1 82/2/1 83/3/1
f 84/4/1 81/1/1 83/3/1
f 85/8/6 86/5/6 87/6/6
f 88/7/6 85/8/6 87/6/6
f 89/5/4 90/6/4 91/7/4
f 92/8/4 89/5/4 91/7/4
f 93/7/5 94/8/5 95/5/5
f 96/6/5 93/7/5 95/5/5
f 97/1/1 98/2/1 99/3/1
f 100/4/1 97/1/1 99/3/1
f 101/6/3 102/7/3 103/8/3
f 104/5/3 101/6/3 103/8/3
f 105/5/4 106/6/4 107/7/4
f 108/8/4 105/5/4 107/7/4
f 109/7/5 110/8/5 111/5/5
f 112/6/5 109/7/5 111/5/5
f 113/5/2 114/6/2 115/7/2
f 116/8/2 113/5/2 115/7/2
f 117/6/3 118/7/3 119/8/3
f 120/5/3 117/6/3 119/8/3
f 121/5/4 122/6/4 123/7/4
f 124/8/4 121/5/4 123/7/4
f 125/7/5 126/8/5 127/5/5
f 128/6/5 125/7/5 127/5/5
f 129/8/6 130/5/6 131/6/6
f 132/7/6 129/8/6 131/6/6
f 133/6/3 134/7/3 135/8/3
f 136/5/3 133/6/3 135/8/3
f 137/5/4 138/6/4 139/7/4
f 140/8/4 137/5/4 139/7/4
f 141/7/5 142/8/5 143/5/5
f 144/6/5 141/7/5 143/5/5
o node_2
v -2.500000 -1.500000 -1.500000
v -2.500000 -1.500000 -2.500000
v -1.500000 -1.500000 -2.500000
v -1.500000 -1.500000 -1.500000
v -1.500000 -0.500000 -1.500000
v -1.500000 -0.500000 -2.500000
v -2.500000 -0.500000 -2.500000
v -2.500000 -0.500000 -1.500000
v -2.500000 -0.500000 -2.500000
v -1.500000 -0.500000 -2.500000
v -1.500000 -1.500000 -2.500000
v -2.500000 -1.500000 -2.500000
v -2.500000 -0.500000 -1.500000
v -2.500000 -1.500000 -1.500000
v -1.500000 -1.500000 -1.500000
v -1.500000 -0.500000 -1.500000
v -2.500000 -0.500000 -1.500000
v -2.500000 -0.500000 -2.500000
v -2.500000 -1.500000 -2.500000
v -2.500000 -1.500000 -1.500000
v -1.500000 -1.500000 -1.500000
v -1.500000 -1.500000 -2.500000
v -1.500000 -0.500000 -2.500000
v -1.500000 -0.500000 -1.500000
vn -0.0000 -1.0000 -0.0000
vn -0.0000 1.0000 -0.0000
vn -0.0000 -0.0000 -1.0000
vn -0.0000 -0.0000 1.0000
vn -1.0000 -0.0000 -0.0000
vn 1.0000 -0.0000 -0.0000
vt 0.457031 0.523438
vt 0.457031 0.507812
vt 0.464844 0.507812
vt 0.464844 0.523438
vt 0.464824 0.507852
vt 0.464824 0.523398
vt 0.457051 0.523398
vt 0.457051 0.507852
s 0
usemtl terrain_atlas.terrain.009
f 145/9/7 146/10/7 147/11/7
f 148/12/7 145/9/7 147/11/7
f 149/13/8 150/14/8 151/15/8
f 152/16/8 149/13/8 151/15/8
f 153/14/9 154/15/9 155/16/9
f 156/13/9 153/14/9 155/16/9
f 157/15/10 158/16/10 159/13/10
f 160/14/10 157/15/10 159/13/10
f 161/14/11 162/15/11 163/16/11
f 164/13/11 161/14/11 163/16/11
f 165/16/12 166/13/12 167/14/12
f 168/15/12 165/16/12 167/14/12
